<svg width="18" height="18" viewBox="0 0 18 18" fill="none" xmlns="http://www.w3.org/2000/svg">
<path d="M11.0303 6.03033C11.3232 5.73744 11.3232 5.26256 11.0303 4.96967C10.7374 4.67677 10.2626 4.67677 9.96967 4.96967L11.0303 6.03033ZM8.5 3.5L7.96967 2.96967L8.5 3.5ZM4.49999 7.5L5.03032 8.03033H5.03032L4.49999 7.5ZM10.5 13.5L11.0303 14.0303L10.5 13.5ZM15.0303 10.0303C15.3232 9.73744 15.3232 9.26256 15.0303 8.96967C14.7374 8.67678 14.2626 8.67678 13.9697 8.96967L15.0303 10.0303ZM4.5 13.5L3.96967 14.0303L4.5 13.5ZM6.5 11.5L5.96967 12.0303L6.5 11.5ZM9.96967 4.96967L5.96967 8.96967L7.03033 10.0303L11.0303 6.03033L9.96967 4.96967ZM9.03033 12.0303L13.0303 8.03033L11.9697 6.96967L7.96967 10.9697L9.03033 12.0303ZM7.96967 2.96967L3.96966 6.96967L5.03032 8.03033L9.03033 4.03033L7.96967 2.96967ZM11.0303 14.0303L15.0303 10.0303L13.9697 8.96967L9.96967 12.9697L11.0303 14.0303ZM3.96967 14.0303C5.91941 15.9801 9.08058 15.9801 11.0303 14.0303L9.96967 12.9697C8.60571 14.3336 6.39429 14.3336 5.03033 12.9697L3.96967 14.0303ZM3.96966 6.96967C2.01992 8.91942 2.01992 12.0806 3.96967 14.0303L5.03033 12.9697C3.66636 11.6057 3.66636 9.39429 5.03032 8.03033L3.96966 6.96967ZM13.0303 2.96967C11.6329 1.5722 9.36713 1.5722 7.96967 2.96967L9.03033 4.03033C9.842 3.21865 11.158 3.21865 11.9697 4.03033L13.0303 2.96967ZM13.0303 8.03033C14.4278 6.63286 14.4278 4.36713 13.0303 2.96967L11.9697 4.03033C12.7813 4.842 12.7813 6.15799 11.9697 6.96967L13.0303 8.03033ZM5.96967 12.0303C6.81485 12.8755 8.18515 12.8755 9.03033 12.0303L7.96967 10.9697C7.71028 11.2291 7.28972 11.2291 7.03033 10.9697L5.96967 12.0303ZM5.96967 8.96967C5.12449 9.81485 5.12449 11.1852 5.96967 12.0303L7.03033 10.9697C6.77094 10.7103 6.77094 10.2897 7.03033 10.0303L5.96967 8.96967Z" fill="#28303F"/>
</svg>
