<svg width="30" height="30" viewBox="0 0 30 30" fill="none" xmlns="http://www.w3.org/2000/svg">
<path d="M10.5429 9.29289C10.1524 9.68342 10.1524 10.3166 10.5429 10.7071C10.9334 11.0976 11.5666 11.0976 11.9571 10.7071L10.5429 9.29289ZM16.7678 8.01777L16.0607 8.72487V8.72487L16.7678 8.01777ZM18.0429 10.7071C18.4334 11.0976 19.0666 11.0976 19.4571 10.7071C19.8476 10.3166 19.8476 9.68342 19.4571 9.29289L18.0429 10.7071ZM16 7.5C16 6.94772 15.5523 6.5 15 6.5C14.4477 6.5 14 6.94772 14 7.5H16ZM14 13.75C14 14.3023 14.4477 14.75 15 14.75C15.5523 14.75 16 14.3023 16 13.75H14ZM9.5 17.25L8.7 17.85L8.7 17.85L9.5 17.25ZM11 19.25L11.8 18.65L11 19.25ZM19 19.25L18.2 18.65L19 19.25ZM20.5 17.25L19.7 16.65V16.65L20.5 17.25ZM11.9571 10.7071L13.9393 8.72488L12.5251 7.31066L10.5429 9.29289L11.9571 10.7071ZM16.0607 8.72487L18.0429 10.7071L19.4571 9.29289L17.4749 7.31066L16.0607 8.72487ZM14 7.5V13.75H16V7.5H14ZM13.9393 8.72488C14.5251 8.13909 15.4749 8.13909 16.0607 8.72487L17.4749 7.31066C16.108 5.94382 13.892 5.94383 12.5251 7.31066L13.9393 8.72488ZM26.5 20V23.75H28.5V20H26.5ZM23.75 26.5H6.25V28.5H23.75V26.5ZM3.5 23.75V20H1.5V23.75H3.5ZM6.25 17.25H7.5V15.25H6.25V17.25ZM8.7 17.85L10.2 19.85L11.8 18.65L10.3 16.65L8.7 17.85ZM22.5 17.25H23.75V15.25H22.5V17.25ZM19.8 19.85L21.3 17.85L19.7 16.65L18.2 18.65L19.8 19.85ZM15 22.25C16.8885 22.25 18.6669 21.3608 19.8 19.85L18.2 18.65C17.4446 19.6572 16.259 20.25 15 20.25V22.25ZM22.5 15.25C21.3984 15.25 20.361 15.7687 19.7 16.65L21.3 17.85C21.5833 17.4723 22.0279 17.25 22.5 17.25V15.25ZM10.2 19.85C11.3331 21.3608 13.1115 22.25 15 22.25V20.25C13.741 20.25 12.5554 19.6572 11.8 18.65L10.2 19.85ZM7.5 17.25C7.97214 17.25 8.41672 17.4723 8.7 17.85L10.3 16.65C9.63901 15.7687 8.60165 15.25 7.5 15.25V17.25ZM6.25 26.5C4.73122 26.5 3.5 25.2688 3.5 23.75H1.5C1.5 26.3734 3.62665 28.5 6.25 28.5V26.5ZM26.5 23.75C26.5 25.2688 25.2688 26.5 23.75 26.5V28.5C26.3734 28.5 28.5 26.3734 28.5 23.75H26.5ZM28.5 20C28.5 17.3767 26.3734 15.25 23.75 15.25V17.25C25.2688 17.25 26.5 18.4812 26.5 20H28.5ZM3.5 20C3.5 18.4812 4.73122 17.25 6.25 17.25V15.25C3.62665 15.25 1.5 17.3767 1.5 20H3.5ZM26 16.25V7.5H24V16.25H26ZM20 1.5H10V3.5H20V1.5ZM4 7.5V16.25H6V7.5H4ZM10 1.5C6.68629 1.5 4 4.18629 4 7.5H6C6 5.29086 7.79086 3.5 10 3.5V1.5ZM26 7.5C26 4.18629 23.3137 1.5 20 1.5V3.5C22.2091 3.5 24 5.29086 24 7.5H26Z" fill="#28303F"/>
</svg>
