<svg width="30" height="30" viewBox="0 0 30 30" fill="none" xmlns="http://www.w3.org/2000/svg">
<path d="M11.9067 3.75L13.103 4.11258C13.2368 3.67128 13.1167 3.19218 12.7906 2.86612C12.4646 2.54005 11.9855 2.41999 11.5442 2.55374L11.9067 3.75ZM26.25 18.0933L27.4463 18.4558C27.58 18.0145 27.4599 17.5354 27.1339 17.2094C26.8078 16.8833 26.3287 16.7632 25.8874 16.897L26.25 18.0933ZM10.1642 7.08953C10.1642 14.1291 15.8709 19.8358 22.9105 19.8358V17.3358C17.2516 17.3358 12.6642 12.7484 12.6642 7.08953H10.1642ZM2.5 14.7537C2.5 21.7933 8.2067 27.5 15.2463 27.5V25C9.58742 25 5 20.4126 5 14.7537H2.5ZM11.5442 2.55374C6.31133 4.13977 2.5 9.00002 2.5 14.7537H5C5 10.1319 8.06108 6.22175 12.2693 4.94626L11.5442 2.55374ZM10.7105 3.38742C10.3549 4.56055 10.1642 5.80389 10.1642 7.08953H12.6642C12.6642 6.05226 12.8179 5.05316 13.103 4.11258L10.7105 3.38742ZM15.2463 27.5C21 27.5 25.8602 23.6887 27.4463 18.4558L25.0537 17.7307C23.7783 21.9389 19.8681 25 15.2463 25V27.5ZM22.9105 19.8358C24.1961 19.8358 25.4395 19.6451 26.6126 19.2895L25.8874 16.897C24.9468 17.1821 23.9477 17.3358 22.9105 17.3358V19.8358Z" fill="#28303F"/>
</svg>
