<svg width="30" height="30" viewBox="0 0 30 30" fill="none" xmlns="http://www.w3.org/2000/svg">
<path d="M6.6416 16.1441L5.39957 16.0031L6.6416 16.1441ZM7.20058 11.219L8.44261 11.36L7.20058 11.219ZM5.55973 18.5902L4.60789 17.7799H4.60789L5.55973 18.5902ZM24.6004 16.0031C24.5226 15.3172 23.9034 14.8242 23.2174 14.902C22.5315 14.9799 22.0385 15.5991 22.1164 16.285L24.6004 16.0031ZM24.4403 18.5902L23.4884 19.4004L24.4403 18.5902ZM12.1626 5.46708L12.5675 6.64968C13.073 6.4766 13.4126 6.00138 13.4126 5.46708L12.1626 5.46708ZM16.2053 4.30431C16.655 4.8281 17.4442 4.88815 17.968 4.43844C18.4918 3.98873 18.5518 3.19956 18.1021 2.67577L16.2053 4.30431ZM19.9205 25.4387C20.1628 24.7922 19.8351 24.0718 19.1887 23.8295C18.5422 23.5872 17.8218 23.9149 17.5795 24.5613L19.9205 25.4387ZM12.4205 24.5613C12.1782 23.9149 11.4578 23.5872 10.8113 23.8295C10.1649 24.0718 9.83723 24.7922 10.0795 25.4387L12.4205 24.5613ZM25 8.75C25 10.1307 23.8807 11.25 22.5 11.25V13.75C25.2614 13.75 27.5 11.5114 27.5 8.75H25ZM22.5 11.25C21.1193 11.25 20 10.1307 20 8.75H17.5C17.5 11.5114 19.7386 13.75 22.5 13.75V11.25ZM20 8.75C20 7.36929 21.1193 6.25 22.5 6.25V3.75C19.7386 3.75 17.5 5.98858 17.5 8.75H20ZM22.5 6.25C23.8807 6.25 25 7.36929 25 8.75H27.5C27.5 5.98858 25.2614 3.75 22.5 3.75V6.25ZM22.2215 21.25H7.77852V23.75H22.2215V21.25ZM7.88362 16.285L8.44261 11.36L5.95855 11.078L5.39957 16.0031L7.88362 16.285ZM6.51158 19.4004C7.27141 18.5078 7.7535 17.4316 7.88362 16.285L5.39957 16.0031C5.32834 16.6307 5.06219 17.2462 4.60789 17.7799L6.51158 19.4004ZM22.1164 16.285C22.2465 17.4316 22.7286 18.5078 23.4884 19.4004L25.3921 17.7799C24.9378 17.2462 24.6717 16.6307 24.6004 16.0031L22.1164 16.285ZM7.77852 21.25C7.0677 21.25 6.59462 20.9017 6.38498 20.5322C6.18768 20.1846 6.1872 19.7815 6.51158 19.4004L4.60789 17.7799C3.56098 19.0098 3.52715 20.5616 4.21069 21.7661C4.8819 22.9489 6.20386 23.75 7.77852 23.75V21.25ZM22.2215 23.75C23.7961 23.75 25.1181 22.9489 25.7893 21.7661C26.4729 20.5616 26.439 19.0098 25.3921 17.7799L23.4884 19.4004C23.8128 19.7815 23.8123 20.1846 23.615 20.5322C23.4054 20.9017 22.9323 21.25 22.2215 21.25V23.75ZM13.4126 5.46708V5.33743H10.9126V5.46708H13.4126ZM8.44261 11.36C8.6805 9.26392 10.2649 7.43804 12.5675 6.64968L11.7577 4.28447C8.70421 5.32994 6.32349 7.86267 5.95855 11.078L8.44261 11.36ZM15 1.25C12.7426 1.25 10.9126 3.08001 10.9126 5.33743H13.4126C13.4126 4.46072 14.1233 3.75 15 3.75V1.25ZM15 3.75C15.4817 3.75 15.9123 3.963 16.2053 4.30431L18.1021 2.67577C17.3544 1.80487 16.2413 1.25 15 1.25V3.75ZM17.5795 24.5613C17.2236 25.511 16.2305 26.25 15 26.25V28.75C17.232 28.75 19.1847 27.402 19.9205 25.4387L17.5795 24.5613ZM15 26.25C13.7695 26.25 12.7764 25.511 12.4205 24.5613L10.0795 25.4387C10.8153 27.402 12.768 28.75 15 28.75V26.25Z" fill="#28303F"/>
</svg>
