<svg width="30" height="30" viewBox="0 0 30 30" fill="none" xmlns="http://www.w3.org/2000/svg">
<path d="M26.5 15C26.5 21.3513 21.3513 26.5 15 26.5V28.5C22.4558 28.5 28.5 22.4558 28.5 15H26.5ZM15 26.5C8.64873 26.5 3.5 21.3513 3.5 15H1.5C1.5 22.4558 7.54416 28.5 15 28.5V26.5ZM3.5 15C3.5 8.64873 8.64873 3.5 15 3.5V1.5C7.54416 1.5 1.5 7.54416 1.5 15H3.5ZM15 3.5C21.3513 3.5 26.5 8.64873 26.5 15H28.5C28.5 7.54416 22.4558 1.5 15 1.5V3.5ZM19 15C19 18.3571 18.4539 21.3504 17.6071 23.4674C17.1825 24.5288 16.7021 25.3205 16.2197 25.8306C15.7393 26.3385 15.3268 26.5 15 26.5V28.5C16.0539 28.5 16.9568 27.9619 17.6728 27.2048C18.3868 26.4498 18.9837 25.411 19.464 24.2102C20.4268 21.8032 21 18.5464 21 15H19ZM15 26.5C14.6732 26.5 14.2607 26.3385 13.7803 25.8306C13.2979 25.3205 12.8175 24.5288 12.3929 23.4674C11.5461 21.3504 11 18.3571 11 15H9C9 18.5464 9.57317 21.8032 10.536 24.2102C11.0163 25.411 11.6132 26.4498 12.3272 27.2048C13.0432 27.9619 13.9461 28.5 15 28.5V26.5ZM11 15C11 11.6429 11.5461 8.64961 12.3929 6.53256C12.8175 5.47125 13.2979 4.6795 13.7803 4.16942C14.2607 3.66146 14.6732 3.5 15 3.5V1.5C13.9461 1.5 13.0432 2.0381 12.3272 2.7952C11.6132 3.5502 11.0163 4.58902 10.536 5.78978C9.57317 8.19683 9 11.4536 9 15H11ZM15 3.5C15.3268 3.5 15.7393 3.66146 16.2197 4.16942C16.7021 4.6795 17.1825 5.47125 17.6071 6.53256C18.4539 8.64961 19 11.6429 19 15H21C21 11.4536 20.4268 8.19683 19.464 5.78978C18.9837 4.58902 18.3868 3.5502 17.6728 2.7952C16.9568 2.0381 16.0539 1.5 15 1.5V3.5ZM15 17.75C11.6175 17.75 8.59384 17.3374 6.44851 16.6938C5.36948 16.3701 4.56912 16.0045 4.06084 15.644C3.52659 15.2651 3.5 15.033 3.5 15L1.5 15C1.5 16.0026 2.17297 16.757 2.90378 17.2753C3.66057 17.8121 4.69079 18.2546 5.87382 18.6095C8.25261 19.3231 11.4789 19.75 15 19.75L15 17.75ZM3.5 15C3.5 14.967 3.52659 14.7349 4.06084 14.356C4.56912 13.9955 5.36948 13.6299 6.44851 13.3062C8.59384 12.6626 11.6175 12.25 15 12.25L15 10.25C11.4789 10.25 8.25261 10.6769 5.87382 11.3905C4.69079 11.7454 3.66057 12.1879 2.90378 12.7247C2.17297 13.243 1.5 13.9974 1.5 15L3.5 15ZM15 12.25C18.3825 12.25 21.4062 12.6626 23.5515 13.3062C24.6305 13.6299 25.4309 13.9955 25.9392 14.356C26.4734 14.7349 26.5 14.967 26.5 15L28.5 15C28.5 13.9974 27.827 13.243 27.0962 12.7247C26.3394 12.1879 25.3092 11.7454 24.1262 11.3905C21.7474 10.6769 18.5211 10.25 15 10.25L15 12.25ZM26.5 15C26.5 15.033 26.4734 15.2651 25.9392 15.644C25.4309 16.0045 24.6305 16.3701 23.5515 16.6938C21.4062 17.3374 18.3825 17.75 15 17.75L15 19.75C18.5211 19.75 21.7474 19.3231 24.1262 18.6095C25.3092 18.2546 26.3394 17.8121 27.0962 17.2753C27.827 16.757 28.5 16.0026 28.5 15L26.5 15Z" fill="#28303F"/>
</svg>
