<svg width="30" height="30" viewBox="0 0 30 30" fill="none" xmlns="http://www.w3.org/2000/svg">
<path d="M25.9299 19.6507L25.0771 19.1285V19.1285L25.9299 19.6507ZM24.7367 21.5993L25.5895 22.1215L24.7367 21.5993ZM4.07011 10.3493L3.2173 9.82705H3.2173L4.07011 10.3493ZM5.2633 8.40071L6.11611 8.92293L5.2633 8.40071ZM8.52314 7.57716L9.00125 6.69886L9.00125 6.69886L8.52314 7.57716ZM4.94359 13.4228L4.46548 14.3011H4.46548L4.94359 13.4228ZM21.4769 22.4228L20.9987 23.3011H20.9987L21.4769 22.4228ZM25.0564 16.5772L24.5783 17.4555L25.0564 16.5772ZM5.2633 21.5993L4.41048 22.1215H4.41048L5.2633 21.5993ZM4.07011 19.6507L4.92293 19.1285L4.92293 19.1285L4.07011 19.6507ZM24.7367 8.40073L25.5895 7.87852V7.87851L24.7367 8.40073ZM25.9299 10.3493L25.0771 10.8715V10.8715L25.9299 10.3493ZM25.0564 13.4228L25.5345 14.3011L25.0564 13.4228ZM21.4769 7.57717L21.955 8.45547V8.45547L21.4769 7.57717ZM4.94358 16.5772L5.42169 17.4555H5.42169L4.94358 16.5772ZM8.52314 22.4228L8.04504 21.5445L8.04503 21.5445L8.52314 22.4228ZM21.35 7.64622L20.8719 6.76792V6.76792L21.35 7.64622ZM8.65 7.64621L8.17189 8.52451H8.17189L8.65 7.64621ZM21.35 22.3538L21.8281 21.4755L21.8281 21.4755L21.35 22.3538ZM8.65 22.3538L9.1281 23.2321L9.12811 23.2321L8.65 22.3538ZM13.8068 4.75H16.1932V2.75H13.8068V4.75ZM16.1932 25.25H13.8068V27.25H16.1932V25.25ZM13.8068 25.25C12.9849 25.25 12.4204 24.6357 12.4204 24H10.4204C10.4204 25.8495 11.9928 27.25 13.8068 27.25V25.25ZM17.5796 24C17.5796 24.6357 17.0151 25.25 16.1932 25.25V27.25C18.0072 27.25 19.5796 25.8496 19.5796 24H17.5796ZM16.1932 4.75C17.0151 4.75 17.5796 5.36427 17.5796 6H19.5796C19.5796 4.15045 18.0072 2.75 16.1932 2.75V4.75ZM13.8068 2.75C11.9928 2.75 10.4204 4.15045 10.4204 6H12.4204C12.4204 5.36427 12.9849 4.75 13.8068 4.75V2.75ZM25.0771 19.1285L23.8839 21.0771L25.5895 22.1215L26.7827 20.1729L25.0771 19.1285ZM4.92293 10.8715L6.11611 8.92293L4.41049 7.8785L3.2173 9.82705L4.92293 10.8715ZM6.11611 8.92293C6.4837 8.32263 7.34861 8.07635 8.04504 8.45546L9.00125 6.69886C7.41491 5.83532 5.36086 6.32648 4.41049 7.8785L6.11611 8.92293ZM5.4217 12.5445C4.75647 12.1824 4.57832 11.4343 4.92293 10.8715L3.2173 9.82705C2.24395 11.4166 2.84794 13.4206 4.46548 14.3011L5.4217 12.5445ZM23.8839 21.0771C23.5163 21.6774 22.6514 21.9236 21.955 21.5445L20.9987 23.3011C22.5851 24.1647 24.6391 23.6735 25.5895 22.1215L23.8839 21.0771ZM26.7827 20.1729C27.7561 18.5834 27.1521 16.5794 25.5345 15.6989L24.5783 17.4555C25.2435 17.8176 25.4217 18.5657 25.0771 19.1285L26.7827 20.1729ZM6.11611 21.0771L4.92293 19.1285L3.2173 20.1729L4.41048 22.1215L6.11611 21.0771ZM23.8839 8.92294L25.0771 10.8715L26.7827 9.82707L25.5895 7.87852L23.8839 8.92294ZM25.0771 10.8715C25.4217 11.4343 25.2435 12.1824 24.5783 12.5445L25.5345 14.3011C27.1521 13.4206 27.7561 11.4166 26.7827 9.82707L25.0771 10.8715ZM21.955 8.45547C22.6514 8.07637 23.5163 8.32265 23.8839 8.92295L25.5895 7.87851C24.6391 6.32649 22.5851 5.83533 20.9987 6.69887L21.955 8.45547ZM4.92293 19.1285C4.57832 18.5657 4.75647 17.8176 5.42169 17.4555L4.46548 15.6989C2.84793 16.5794 2.24395 18.5834 3.2173 20.1729L4.92293 19.1285ZM4.41048 22.1215C5.36085 23.6735 7.41491 24.1647 9.00125 23.3011L8.04503 21.5445C7.34861 21.9236 6.4837 21.6774 6.11611 21.0771L4.41048 22.1215ZM21.8281 8.52452L21.955 8.45547L20.9987 6.69887L20.8719 6.76792L21.8281 8.52452ZM8.04503 8.45546L8.17189 8.52451L9.12811 6.76791L9.00125 6.69886L8.04503 8.45546ZM21.955 21.5445L21.8281 21.4755L20.8719 23.2321L20.9987 23.3011L21.955 21.5445ZM8.1719 21.4755L8.04504 21.5445L9.00125 23.3011L9.1281 23.2321L8.1719 21.4755ZM4.46548 14.3011C5.01917 14.6025 5.01917 15.3975 4.46548 15.6989L5.42169 17.4555C7.3671 16.3965 7.3671 13.6035 5.4217 12.5445L4.46548 14.3011ZM9.12811 23.2321C9.71071 22.9149 10.4204 23.3367 10.4204 24H12.4204C12.4204 21.8193 10.0872 20.4329 8.17189 21.4755L9.12811 23.2321ZM19.5796 24C19.5796 23.3367 20.2893 22.9149 20.8719 23.2321L21.8281 21.4755C19.9128 20.4329 17.5796 21.8193 17.5796 24H19.5796ZM25.5345 15.6989C24.9808 15.3975 24.9808 14.6025 25.5345 14.3011L24.5783 12.5445C22.6329 13.6035 22.6329 16.3965 24.5783 17.4555L25.5345 15.6989ZM8.17189 8.52451C10.0872 9.56712 12.4204 8.1807 12.4204 6H10.4204C10.4204 6.66333 9.71071 7.08505 9.12811 6.76791L8.17189 8.52451ZM20.8719 6.76792C20.2893 7.08507 19.5796 6.66334 19.5796 6H17.5796C17.5796 8.18071 19.9128 9.56714 21.8281 8.52452L20.8719 6.76792ZM17.75 15C17.75 16.5188 16.5188 17.75 15 17.75V19.75C17.6234 19.75 19.75 17.6234 19.75 15H17.75ZM15 17.75C13.4812 17.75 12.25 16.5188 12.25 15H10.25C10.25 17.6234 12.3767 19.75 15 19.75V17.75ZM12.25 15C12.25 13.4812 13.4812 12.25 15 12.25V10.25C12.3767 10.25 10.25 12.3766 10.25 15H12.25ZM15 12.25C16.5188 12.25 17.75 13.4812 17.75 15H19.75C19.75 12.3766 17.6234 10.25 15 10.25V12.25Z" fill="#28303F"/>
</svg>
