<svg width="21" height="20" viewBox="0 0 21 20" fill="none" xmlns="http://www.w3.org/2000/svg">
<path d="M2.96765 15.0001H1.96765H2.96765ZM2.96765 5.00008L3.96765 5.00008L2.96765 5.00008ZM6.37702 1.66675V0.666748V1.66675ZM18.3098 5.00008L17.3098 5.00008V5.00008H18.3098ZM18.3098 10.286L19.3098 10.286V10.286H18.3098ZM10.0789 18.3334V17.3334V18.3334ZM6.37702 18.3334V19.3334V18.3334ZM17.3112 12.6431L18.0103 13.3581L17.3112 12.6431ZM12.4896 17.3571L13.1887 18.0721L12.4896 17.3571ZM11.4911 15.0001H12.4911H11.4911ZM14.9004 11.6667V10.6667V11.6667ZM3.96765 15.0001L3.96765 5.00008L1.96765 5.00008L1.96765 15.0001H3.96765ZM6.37702 2.66675L14.9004 2.66675V0.666748L6.37702 0.666748V2.66675ZM17.3098 5.00008V10.286H19.3098V5.00008H17.3098ZM10.0789 17.3334H6.37702V19.3334H10.0789V17.3334ZM16.6121 11.928L11.7906 16.6421L13.1887 18.0721L18.0103 13.3581L16.6121 11.928ZM10.0789 19.3334C11.2411 19.3334 12.3602 18.8822 13.1887 18.0721L11.7906 16.6421C11.3404 17.0822 10.7251 17.3334 10.0789 17.3334V19.3334ZM17.3098 10.286C17.3098 10.8975 17.0616 11.4886 16.6121 11.928L18.0103 13.3581C18.8396 12.5473 19.3098 11.4427 19.3098 10.286L17.3098 10.286ZM3.96765 5.00008C3.96765 3.73256 5.02498 2.66675 6.37702 2.66675V0.666748C3.96317 0.666748 1.96765 2.5857 1.96765 5.00008L3.96765 5.00008ZM1.96765 15.0001C1.96765 17.4145 3.96317 19.3334 6.37702 19.3334V17.3334C5.02498 17.3334 3.96765 16.2676 3.96765 15.0001H1.96765ZM14.9004 2.66675C16.2525 2.66675 17.3098 3.73256 17.3098 5.00008L19.3098 5.00008C19.3098 2.58571 17.3143 0.666749 14.9004 0.666748V2.66675ZM12.4911 18.3334L12.4911 15.0001H10.4911L10.4911 18.3334H12.4911ZM14.9004 12.6667L18.3098 12.6667V10.6667L14.9004 10.6667L14.9004 12.6667ZM12.4911 15.0001C12.4911 13.7326 13.5484 12.6667 14.9004 12.6667V10.6667C12.4866 10.6667 10.4911 12.5857 10.4911 15.0001H12.4911Z" fill="#28303F"/>
</svg>
