<svg width="24" height="22" viewBox="0 0 24 22" fill="none" xmlns="http://www.w3.org/2000/svg">
<path d="M14.7257 7.43726C15.1206 7.05117 15.1277 6.41804 14.7416 6.02314C14.3555 5.62824 13.7224 5.6211 13.3275 6.00719L14.7257 7.43726ZM11.5264 4.27778L10.8273 3.56275L10.8273 3.56275L11.5264 4.27778ZM6.52596 9.16667L7.22505 9.88171L7.22505 9.88171L6.52596 9.16667ZM19.7261 12.3262C20.121 11.9401 20.1281 11.3069 19.742 10.912C19.3559 10.5171 18.7228 10.51 18.3279 10.8961L19.7261 12.3262ZM13.3275 6.00719L8.32708 10.8961L9.72526 12.3262L14.7257 7.43726L13.3275 6.00719ZM12.2255 14.7706L17.2259 9.88171L15.8277 8.45164L10.8273 13.3405L12.2255 14.7706ZM10.8273 3.56275L5.82687 8.45164L7.22505 9.88171L12.2255 4.99282L10.8273 3.56275ZM14.7257 17.215L19.7261 12.3262L18.3279 10.8961L13.3275 15.785L14.7257 17.215ZM5.82687 17.215C8.28673 19.62 12.2658 19.62 14.7257 17.215L13.3275 15.785C11.6449 17.4301 8.90767 17.4301 7.22505 15.785L5.82687 17.215ZM5.82687 8.45164C3.35442 10.869 3.35442 14.7977 5.82687 17.215L7.22505 15.785C5.55503 14.1522 5.55503 11.5145 7.22505 9.88171L5.82687 8.45164ZM17.2259 3.56275C15.4564 1.83276 12.5967 1.83276 10.8273 3.56275L12.2255 4.99282C13.2177 4.02274 14.8355 4.02274 15.8277 4.99282L17.2259 3.56275ZM17.2259 9.88171C19.0079 8.13941 19.0079 5.30504 17.2259 3.56275L15.8277 4.99282C16.8073 5.95058 16.8073 7.49387 15.8277 8.45164L17.2259 9.88171ZM8.32708 14.7706C9.40611 15.8256 11.1464 15.8256 12.2255 14.7706L10.8273 13.3405C10.5255 13.6356 10.027 13.6356 9.72526 13.3405L8.32708 14.7706ZM8.32708 10.8961C7.23545 11.9634 7.23545 13.7033 8.32708 14.7706L9.72526 13.3405C9.43606 13.0578 9.43606 12.6089 9.72526 12.3262L8.32708 10.8961Z" fill="#28303F"/>
<ellipse cx="16.7541" cy="16.5" rx="4.60265" ry="4.5" fill="white"/>
<ellipse cx="16.754" cy="16.5" rx="3.68212" ry="3.6" fill="#BB0000"/>
</svg>
