<svg width="17" height="19" viewBox="0 0 17 19" fill="none" xmlns="http://www.w3.org/2000/svg">
<path d="M1.375 11.125C0.960786 11.125 0.625 11.4608 0.625 11.875C0.625 12.2893 0.960786 12.625 1.375 12.625V11.125ZM15.625 12.625C16.0392 12.625 16.375 12.2893 16.375 11.875C16.375 11.4608 16.0392 11.125 15.625 11.125V12.625ZM15.4867 17.4167L15.1988 18.1093C15.4152 18.1992 15.6612 18.1828 15.8638 18.065C16.0664 17.9472 16.2022 17.7414 16.231 17.5089L15.4867 17.4167ZM13.049 15.7075L13.694 15.3248L13.049 15.7075ZM14.6048 17.0501L14.8927 16.3576L14.6048 17.0501ZM15.1845 14.5077L14.5395 14.8904L15.1845 14.5077ZM15.6014 16.4902L16.3457 16.5823L15.6014 16.4902ZM1.51332 17.4167L0.768998 17.5089C0.797792 17.7414 0.933644 17.9472 1.13622 18.065C1.33879 18.1828 1.5848 18.1992 1.8012 18.1093L1.51332 17.4167ZM1.81549 14.5077L1.17047 14.125L1.81549 14.5077ZM1.39861 16.4902L2.14293 16.398L1.39861 16.4902ZM3.95101 15.7075L3.30599 15.3248L3.95101 15.7075ZM2.39519 17.0501L2.1073 16.3576H2.1073L2.39519 17.0501ZM9.25005 1.58338C9.25006 1.16917 8.91427 0.83338 8.50006 0.833374C8.08585 0.833369 7.75006 1.16915 7.75005 1.58336L9.25005 1.58338ZM1.375 12.625H15.625V11.125H1.375V12.625ZM14.8571 16.398L14.7424 17.3246L16.231 17.5089L16.3457 16.5823L14.8571 16.398ZM15.7746 16.7242L14.8927 16.3576L14.3169 17.7427L15.1988 18.1093L15.7746 16.7242ZM12.404 16.0902C12.8436 16.8313 13.516 17.4097 14.3169 17.7427L14.8927 16.3576C14.3852 16.1466 13.9657 15.7829 13.694 15.3248L12.404 16.0902ZM14.5395 14.8904C14.811 15.348 14.9216 15.8768 14.8571 16.398L16.3457 16.5823C16.4514 15.7289 16.2694 14.8664 15.8295 14.125L14.5395 14.8904ZM2.1073 16.3576L1.22543 16.7242L1.8012 18.1093L2.68307 17.7427L2.1073 16.3576ZM2.25763 17.3246L2.14293 16.398L0.654292 16.5823L0.768998 17.5089L2.25763 17.3246ZM1.17047 14.125C0.730592 14.8664 0.548638 15.7289 0.654292 16.5823L2.14293 16.398C2.07839 15.8768 2.189 15.348 2.46052 14.8904L1.17047 14.125ZM3.30599 15.3248C3.03425 15.7829 2.61479 16.1466 2.1073 16.3576L2.68307 17.7427C3.484 17.4097 4.15638 16.8313 4.59604 16.0902L3.30599 15.3248ZM6.78414 5.58285C6.78414 4.69087 7.533 3.93317 8.50003 3.93317V2.43317C6.74331 2.43317 5.28414 3.82422 5.28414 5.58285H6.78414ZM8.50003 3.93317C9.46706 3.93317 10.2159 4.69087 10.2159 5.58285H11.7159C11.7159 3.82422 10.2567 2.43317 8.50003 2.43317V3.93317ZM10.2159 5.58285C10.2159 5.88856 10.1301 6.17367 9.97937 6.41927L11.2578 7.20389C11.5482 6.73066 11.7159 6.17527 11.7159 5.58285H10.2159ZM9.97356 7.19426L14.5395 14.8904L15.8295 14.125L11.2636 6.4289L9.97356 7.19426ZM7.02067 6.41923C6.86995 6.17365 6.78414 5.88855 6.78414 5.58285H5.28414C5.28414 6.17525 5.45181 6.73062 5.74223 7.20383L7.02067 6.41923ZM2.46052 14.8904L7.02647 7.19421L5.73642 6.42885L1.17047 14.125L2.46052 14.8904ZM9.97937 6.41927C9.68684 6.8959 9.14921 7.22412 8.52429 7.23238L8.54413 8.73225C9.69151 8.71708 10.7004 8.1121 11.2578 7.20389L9.97937 6.41927ZM8.52429 7.23238C8.51623 7.23249 8.50814 7.23254 8.50003 7.23254V8.73254C8.51474 8.73254 8.52944 8.73244 8.54413 8.73225L8.52429 7.23238ZM7.88919 7.59964L3.30599 15.3248L4.59604 16.0902L9.17923 8.365L7.88919 7.59964ZM8.50003 7.23254C8.4919 7.23254 8.4838 7.23249 8.47572 7.23238L8.45586 8.73225C8.47057 8.73244 8.48529 8.73254 8.50003 8.73254V7.23254ZM8.47572 7.23238C7.85081 7.2241 7.31319 6.89587 7.02067 6.41923L5.74223 7.20383C6.29962 8.11206 7.30848 8.71705 8.45586 8.73225L8.47572 7.23238ZM13.694 15.3248L9.11081 7.59964L7.82077 8.36499L12.404 16.0902L13.694 15.3248ZM9.25003 3.18318L9.25005 1.58338L7.75005 1.58336L7.75003 3.18316L9.25003 3.18318Z" fill="#28303F"/>
</svg>
