<svg width="21" height="20" viewBox="0 0 21 20" fill="none" xmlns="http://www.w3.org/2000/svg">
<g clip-path="url(#clip0_128_673)">
<path d="M18.0819 4.58329C18.0819 5.6207 17.2153 6.49996 16.0987 6.49996V8.49996C18.2772 8.49996 20.0819 6.76755 20.0819 4.58329H18.0819ZM14.1155 4.58329C14.1155 3.54589 14.982 2.66663 16.0987 2.66663V0.666626C13.9202 0.666626 12.1155 2.39904 12.1155 4.58329H14.1155ZM16.0987 2.66663C17.2153 2.66663 18.0819 3.54589 18.0819 4.58329H20.0819C20.0819 2.39904 18.2772 0.666626 16.0987 0.666626V2.66663ZM18.0819 15.4166C18.0819 16.454 17.2153 17.3333 16.0987 17.3333V19.3333C18.2772 19.3333 20.0819 17.6009 20.0819 15.4166H18.0819ZM16.0987 17.3333C14.982 17.3333 14.1155 16.454 14.1155 15.4166H12.1155C12.1155 17.6009 13.9202 19.3333 16.0987 19.3333V17.3333ZM16.0987 13.5C17.2153 13.5 18.0819 14.3792 18.0819 15.4166H20.0819C20.0819 13.2324 18.2772 11.5 16.0987 11.5V13.5ZM5.01823 11.9166C3.90156 11.9166 3.03503 11.0374 3.03503 9.99996H1.03503C1.03503 12.1842 2.83975 13.9166 5.01823 13.9166V11.9166ZM3.03503 9.99996C3.03503 8.96256 3.90156 8.08329 5.01823 8.08329V6.08329C2.83975 6.08329 1.03503 7.8157 1.03503 9.99996H3.03503ZM5.01823 8.08329C5.80512 8.08329 6.47577 8.52423 6.7971 9.15132L8.57703 8.23928C7.91881 6.9547 6.56715 6.08329 5.01823 6.08329V8.08329ZM6.7971 9.15132C6.92793 9.40665 7.00143 9.69388 7.00143 9.99996H9.00143C9.00143 9.3681 8.84851 8.7691 8.57703 8.23928L6.7971 9.15132ZM7.00143 9.99996C7.00143 10.306 6.92793 10.5933 6.7971 10.8486L8.57703 11.7606C8.84851 11.2308 9.00143 10.6318 9.00143 9.99996H7.00143ZM6.7971 10.8486C6.47577 11.4757 5.80512 11.9166 5.01823 11.9166V13.9166C6.56715 13.9166 7.91881 13.0452 8.57703 11.7606L6.7971 10.8486ZM8.12625 9.5937L13.869 6.78635L12.9907 4.98955L7.24788 7.7969L8.12625 9.5937ZM16.0987 6.49996C15.3118 6.49996 14.6411 6.05903 14.3198 5.43193L12.5399 6.34397C13.1981 7.62856 14.5498 8.49996 16.0987 8.49996V6.49996ZM14.3198 5.43193C14.189 5.17661 14.1155 4.88937 14.1155 4.58329H12.1155C12.1155 5.21515 12.2684 5.81416 12.5399 6.34397L14.3198 5.43193ZM13.869 13.2136L8.12625 10.4062L7.24788 12.203L12.9907 15.0104L13.869 13.2136ZM14.1155 15.4166C14.1155 15.1105 14.189 14.8233 14.3198 14.568L12.5399 13.6559C12.2684 14.1858 12.1155 14.7848 12.1155 15.4166H14.1155ZM14.3198 14.568C14.6411 13.9409 15.3118 13.5 16.0987 13.5V11.5C14.5498 11.5 13.1981 12.3714 12.5399 13.6559L14.3198 14.568Z" fill="#28303F"/>
</g>
<defs>
<clipPath id="clip0_128_673">
<rect width="20.4562" height="20" fill="white" transform="translate(0.330322)"/>
</clipPath>
</defs>
</svg>
