<svg width="21" height="20" viewBox="0 0 21 20" fill="none" xmlns="http://www.w3.org/2000/svg">
<path d="M3.09717 16.5C2.54488 16.5 2.09717 16.9477 2.09717 17.5C2.09717 18.0523 2.54488 18.5 3.09717 18.5V16.5ZM18.4393 18.5C18.9916 18.5 19.4393 18.0523 19.4393 17.5C19.4393 16.9477 18.9916 16.5 18.4393 16.5V18.5ZM6.77897 14.9901L6.64064 13.9997H6.64064L6.77897 14.9901ZM5.66436 13.9003L4.67487 13.7557L5.66436 13.9003ZM6.63964 9.94997L5.94055 9.23493L6.63964 9.94997ZM6.08234 11.0397L7.07183 11.1843L6.08234 11.0397ZM10.8194 14.0365L11.5185 14.7516L10.8194 14.0365ZM9.70481 14.5814L9.84314 15.5718L9.70481 14.5814ZM17.8622 4.42642L17.1631 5.14146V5.14146L17.8622 4.42642ZM17.8622 7.1508L17.1631 6.43576L17.8622 7.1508ZM16.469 3.06424L17.168 2.3492V2.3492L16.469 3.06424ZM13.6824 3.06424L14.3815 3.77927L13.6824 3.06424ZM13.2892 4.42643C13.2892 3.87414 12.8415 3.42643 12.2892 3.42643C11.7369 3.42643 11.2892 3.87414 11.2892 4.42643L13.2892 4.42643ZM16.469 9.51299C17.0212 9.51299 17.469 9.06528 17.469 8.51299C17.469 7.96071 17.0212 7.51299 16.469 7.51299V9.51299ZM3.09717 18.5H18.4393V16.5H3.09717V18.5ZM15.7699 3.77927L17.1631 5.14146L18.5613 3.71139L17.168 2.3492L15.7699 3.77927ZM17.1631 6.43576L10.1203 13.3215L11.5185 14.7516L18.5613 7.86583L17.1631 6.43576ZM7.33873 10.665L14.3815 3.77927L12.9833 2.3492L5.94055 9.23493L7.33873 10.665ZM9.56648 13.591L6.64064 13.9997L6.91729 15.9804L9.84314 15.5718L9.56648 13.591ZM6.65385 14.0449L7.07183 11.1843L5.09284 10.8951L4.67487 13.7557L6.65385 14.0449ZM6.64064 13.9997C6.63523 14.0004 6.63577 13.9995 6.63867 14.0005C6.64015 14.001 6.64109 14.0016 6.6421 14.0026C6.64312 14.0036 6.64701 14.0078 6.65032 14.0171C6.65202 14.0219 6.6533 14.0274 6.65387 14.033C6.65446 14.0388 6.65412 14.0431 6.65385 14.0449L4.67487 13.7557C4.48098 15.0827 5.63876 16.159 6.91729 15.9804L6.64064 13.9997ZM5.94055 9.23493C5.48427 9.68104 5.18519 10.2631 5.09284 10.8951L7.07183 11.1843C7.10006 10.9911 7.19209 10.8084 7.33873 10.665L5.94055 9.23493ZM10.1203 13.3215C9.97335 13.4652 9.77945 13.5613 9.56648 13.591L9.84314 15.5718C10.4743 15.4836 11.0626 15.1973 11.5185 14.7516L10.1203 13.3215ZM17.1631 5.14146C17.5314 5.50151 17.5314 6.07572 17.1631 6.43576L18.5613 7.86583C19.732 6.72125 19.732 4.85597 18.5613 3.71139L17.1631 5.14146ZM17.168 2.3492C16.0099 1.21693 14.1414 1.21693 12.9833 2.3492L14.3815 3.77927C14.7624 3.40691 15.389 3.40691 15.7699 3.77927L17.168 2.3492ZM12.2892 4.42643C11.2892 4.42643 11.2892 4.42693 11.2892 4.42744C11.2892 4.42762 11.2892 4.42814 11.2892 4.42849C11.2892 4.4292 11.2892 4.42993 11.2892 4.43069C11.2892 4.43219 11.2892 4.43379 11.2892 4.43547C11.2892 4.43884 11.2893 4.44255 11.2893 4.44661C11.2895 4.45472 11.2897 4.46421 11.2901 4.47503C11.2908 4.49667 11.292 4.52366 11.2942 4.55565C11.2986 4.61959 11.3066 4.70372 11.3214 4.80513C11.3511 5.00782 11.4079 5.28093 11.5168 5.60049C11.736 6.24344 12.163 7.06377 12.9833 7.86584L14.3815 6.43577C13.8086 5.87565 13.5389 5.33379 13.4098 4.9551C13.3446 4.76383 13.3144 4.61126 13.3004 4.51597C13.2935 4.4684 13.2907 4.43547 13.2896 4.41959C13.289 4.41167 13.2889 4.40806 13.289 4.40908C13.289 4.40959 13.289 4.41127 13.2891 4.41414C13.2891 4.41558 13.2891 4.41732 13.2891 4.41937C13.2892 4.42039 13.2892 4.42149 13.2892 4.42266C13.2892 4.42325 13.2892 4.42386 13.2892 4.42449C13.2892 4.4248 13.2892 4.42529 13.2892 4.42544C13.2892 4.42593 13.2892 4.42643 12.2892 4.42643ZM12.9833 7.86584C13.8032 8.66744 14.6386 9.08175 15.2883 9.2935C15.6116 9.39887 15.8874 9.45363 16.0912 9.48209C16.1932 9.49634 16.2775 9.50405 16.3413 9.50821C16.3732 9.51029 16.4001 9.51149 16.4214 9.51216C16.4321 9.5125 16.4415 9.51271 16.4494 9.51283C16.4534 9.51289 16.457 9.51293 16.4602 9.51296C16.4619 9.51297 16.4634 9.51298 16.4649 9.51298C16.4656 9.51299 16.4663 9.51299 16.467 9.51299C16.4673 9.51299 16.4678 9.51299 16.468 9.51299C16.4685 9.51299 16.469 9.51299 16.469 8.51299C16.469 7.51299 16.4694 7.51299 16.4699 7.51299C16.47 7.51299 16.4705 7.51299 16.4708 7.51299C16.4714 7.51299 16.472 7.51299 16.4725 7.513C16.4736 7.513 16.4747 7.51301 16.4756 7.51301C16.4775 7.51303 16.4791 7.51305 16.4804 7.51307C16.483 7.51311 16.4843 7.51315 16.4845 7.51315C16.4848 7.51316 16.4803 7.51303 16.4714 7.51245C16.4536 7.51128 16.4182 7.50836 16.3678 7.50132C16.2668 7.48722 16.1072 7.45684 15.908 7.39193C15.5128 7.26314 14.9549 6.99636 14.3815 6.43577L12.9833 7.86584Z" fill="#28303F"/>
</svg>
