<svg width="20" height="20" viewBox="0 0 20 20" fill="none" xmlns="http://www.w3.org/2000/svg">
<path d="M17.5834 9.99999C17.5834 14.1881 14.1882 17.5833 10.0001 17.5833V19.0833C15.0167 19.0833 19.0834 15.0166 19.0834 9.99999H17.5834ZM10.0001 17.5833C5.81192 17.5833 2.41675 14.1881 2.41675 9.99999H0.916748C0.916748 15.0166 4.98349 19.0833 10.0001 19.0833V17.5833ZM2.41675 9.99999C2.41675 5.81183 5.81192 2.41666 10.0001 2.41666V0.916656C4.98349 0.916656 0.916748 4.9834 0.916748 9.99999H2.41675ZM10.0001 2.41666C14.1882 2.41666 17.5834 5.81183 17.5834 9.99999H19.0834C19.0834 4.9834 15.0167 0.916656 10.0001 0.916656V2.41666ZM12.5834 9.99999C12.5834 12.2302 12.2205 14.2147 11.6607 15.614C11.3801 16.3157 11.0646 16.8333 10.7526 17.1631C10.4422 17.4914 10.1876 17.5833 10.0001 17.5833V19.0833C10.733 19.0833 11.3553 18.7089 11.8425 18.1938C12.3281 17.6802 12.7309 16.9774 13.0535 16.1711C13.7002 14.5543 14.0834 12.3722 14.0834 9.99999H12.5834ZM10.0001 17.5833C9.81252 17.5833 9.55795 17.4914 9.24751 17.1631C8.93558 16.8333 8.6201 16.3157 8.33942 15.614C7.7797 14.2147 7.41675 12.2302 7.41675 9.99999H5.91675C5.91675 12.3722 6.29999 14.5543 6.9467 16.1711C7.26923 16.9774 7.67203 17.6802 8.15768 18.1938C8.64483 18.7089 9.26717 19.0833 10.0001 19.0833V17.5833ZM7.41675 9.99999C7.41675 7.76979 7.7797 5.78526 8.33942 4.38598C8.6201 3.68425 8.93558 3.16671 9.24751 2.83686C9.55795 2.5086 9.81252 2.41666 10.0001 2.41666V0.916656C9.26717 0.916656 8.64483 1.29108 8.15768 1.8062C7.67203 2.31973 7.26923 3.02258 6.9467 3.82889C6.29999 5.44568 5.91675 7.62781 5.91675 9.99999H7.41675ZM10.0001 2.41666C10.1876 2.41666 10.4422 2.5086 10.7526 2.83686C11.0646 3.16671 11.3801 3.68425 11.6607 4.38598C12.2205 5.78526 12.5834 7.76979 12.5834 9.99999H14.0834C14.0834 7.62781 13.7002 5.44568 13.0535 3.82889C12.7309 3.02258 12.3281 2.31973 11.8425 1.8062C11.3553 1.29108 10.733 0.916656 10.0001 0.916656V2.41666ZM10.0001 11.75C7.75085 11.75 5.74352 11.4755 4.32304 11.0494C3.60802 10.8349 3.08402 10.5944 2.75552 10.3614C2.59305 10.2461 2.50207 10.1493 2.45564 10.0812C2.43352 10.0488 2.42408 10.0267 2.42017 10.0151C2.41657 10.0045 2.41675 10.0003 2.41675 9.99999H0.916748C0.916748 10.7088 1.39233 11.2335 1.88772 11.5848C2.4026 11.95 3.099 12.2482 3.89201 12.4861C5.4876 12.9648 7.64693 13.25 10.0001 13.25V11.75ZM2.41675 9.99999C2.41675 9.99966 2.41657 9.9955 2.42017 9.98486C2.42408 9.97331 2.43352 9.95121 2.45564 9.91877C2.50207 9.8507 2.59305 9.75386 2.75552 9.63862C3.08402 9.40562 3.60802 9.1651 4.32304 8.95059C5.74352 8.52444 7.75085 8.24999 10.0001 8.24999V6.74999C7.64693 6.74999 5.4876 7.03518 3.89201 7.51385C3.099 7.75176 2.4026 8.04994 1.88772 8.41513C1.39233 8.76651 0.916748 9.2912 0.916748 9.99999H2.41675ZM10.0001 8.24999C12.2493 8.24999 14.2566 8.52445 15.6771 8.95059C16.3921 9.1651 16.9161 9.40562 17.2446 9.63862C17.4071 9.75386 17.4981 9.8507 17.5445 9.91877C17.5666 9.95121 17.5761 9.97331 17.58 9.98486C17.5836 9.9955 17.5834 9.99966 17.5834 9.99999H19.0834C19.0834 9.2912 18.6078 8.76651 18.1124 8.41513C17.5976 8.04994 16.9012 7.75176 16.1081 7.51385C14.5126 7.03518 12.3532 6.74999 10.0001 6.74999V8.24999ZM17.5834 9.99999C17.5834 10.0003 17.5836 10.0045 17.58 10.0151C17.5761 10.0267 17.5666 10.0488 17.5445 10.0812C17.4981 10.1493 17.4071 10.2461 17.2446 10.3614C16.9161 10.5944 16.3921 10.8349 15.6771 11.0494C14.2566 11.4755 12.2493 11.75 10.0001 11.75V13.25C12.3532 13.25 14.5126 12.9648 16.1081 12.4861C16.9012 12.2482 17.5976 11.95 18.1124 11.5848C18.6078 11.2335 19.0834 10.7088 19.0834 9.99999H17.5834Z" fill="#28303F"/>
</svg>
