<svg width="20" height="20" viewBox="0 0 20 20" fill="none" xmlns="http://www.w3.org/2000/svg">
<path d="M6.96975 6.13633C6.67686 6.42922 6.67686 6.90409 6.96975 7.19699C7.26264 7.48988 7.73752 7.48988 8.03041 7.19699L6.96975 6.13633ZM11.1786 5.34517L10.6483 5.8755H10.6483L11.1786 5.34517ZM11.9697 7.19699C12.2626 7.48988 12.7375 7.48988 13.0304 7.19699C13.3233 6.90409 13.3233 6.42922 13.0304 6.13633L11.9697 7.19699ZM10.7501 4.99999C10.7501 4.58578 10.4143 4.24999 10.0001 4.24999C9.58587 4.24999 9.25008 4.58578 9.25008 4.99999H10.7501ZM9.25008 9.16666C9.25008 9.58087 9.58587 9.91666 10.0001 9.91666C10.4143 9.91666 10.7501 9.58087 10.7501 9.16666H9.25008ZM6.33341 11.5L5.73341 11.95H5.73341L6.33341 11.5ZM7.33341 12.8333L7.93341 12.3833L7.33341 12.8333ZM12.6667 12.8333L12.0667 12.3833L12.6667 12.8333ZM13.6667 11.5L13.0667 11.05V11.05L13.6667 11.5ZM8.03041 7.19699L9.3519 5.8755L8.29124 4.81484L6.96975 6.13633L8.03041 7.19699ZM10.6483 5.8755L11.9697 7.19699L13.0304 6.13633L11.7089 4.81484L10.6483 5.8755ZM9.25008 4.99999V9.16666H10.7501V4.99999H9.25008ZM9.3519 5.8755C9.70988 5.51752 10.2903 5.51752 10.6483 5.8755L11.7089 4.81484C10.7652 3.87107 9.235 3.87107 8.29124 4.81484L9.3519 5.8755ZM17.5834 13.3333V15.8333H19.0834V13.3333H17.5834ZM15.8334 17.5833H4.16675V19.0833H15.8334V17.5833ZM2.41675 15.8333V13.3333H0.916748V15.8333H2.41675ZM4.16675 11.5833H5.00008V10.0833H4.16675V11.5833ZM5.73341 11.95L6.73341 13.2833L7.93341 12.3833L6.93341 11.05L5.73341 11.95ZM15.0001 11.5833H15.8334V10.0833H15.0001V11.5833ZM13.2667 13.2833L14.2667 11.95L13.0667 11.05L12.0667 12.3833L13.2667 13.2833ZM10.0001 14.9167C11.2853 14.9167 12.4956 14.3115 13.2667 13.2833L12.0667 12.3833C11.5789 13.0338 10.8132 13.4167 10.0001 13.4167V14.9167ZM15.0001 10.0833C14.2394 10.0833 13.5231 10.4415 13.0667 11.05L14.2667 11.95C14.4399 11.7192 14.7116 11.5833 15.0001 11.5833V10.0833ZM6.73341 13.2833C7.50457 14.3115 8.71482 14.9167 10.0001 14.9167V13.4167C9.18696 13.4167 8.42129 13.0338 7.93341 12.3833L6.73341 13.2833ZM5.00008 11.5833C5.28861 11.5833 5.5603 11.7192 5.73341 11.95L6.93341 11.05C6.47702 10.4415 5.76074 10.0833 5.00008 10.0833V11.5833ZM4.16675 17.5833C3.20025 17.5833 2.41675 16.7998 2.41675 15.8333H0.916748C0.916748 17.6282 2.37182 19.0833 4.16675 19.0833V17.5833ZM17.5834 15.8333C17.5834 16.7998 16.7999 17.5833 15.8334 17.5833V19.0833C17.6283 19.0833 19.0834 17.6282 19.0834 15.8333H17.5834ZM19.0834 13.3333C19.0834 11.5384 17.6283 10.0833 15.8334 10.0833V11.5833C16.7999 11.5833 17.5834 12.3668 17.5834 13.3333H19.0834ZM2.41675 13.3333C2.41675 12.3668 3.20025 11.5833 4.16675 11.5833V10.0833C2.37182 10.0833 0.916748 11.5384 0.916748 13.3333H2.41675ZM17.4167 10.8333V4.99999H15.9167V10.8333H17.4167ZM13.3334 0.916656H6.66675V2.41666H13.3334V0.916656ZM2.58341 4.99999V10.8333H4.08341V4.99999H2.58341ZM6.66675 0.916656C4.41158 0.916656 2.58341 2.74483 2.58341 4.99999H4.08341C4.08341 3.57325 5.24001 2.41666 6.66675 2.41666V0.916656ZM17.4167 4.99999C17.4167 2.74483 15.5886 0.916656 13.3334 0.916656V2.41666C14.7601 2.41666 15.9167 3.57325 15.9167 4.99999H17.4167Z" fill="#28303F"/>
</svg>
