<svg width="20" height="18" viewBox="0 0 20 18" fill="none" xmlns="http://www.w3.org/2000/svg">
<path d="M8.33341 9.91667C7.9192 9.91667 7.58341 10.2525 7.58341 10.6667C7.58341 11.0809 7.9192 11.4167 8.33341 11.4167V9.91667ZM11.6667 11.4167C12.081 11.4167 12.4167 11.0809 12.4167 10.6667C12.4167 10.2525 12.081 9.91667 11.6667 9.91667V11.4167ZM3.33341 8.91667H16.6667V7.41667H3.33341V8.91667ZM17.5834 9.83333V13.1667H19.0834V9.83333H17.5834ZM15.0001 15.75H5.00008V17.25H15.0001V15.75ZM2.41675 13.1667V9.83333H0.916748V13.1667H2.41675ZM5.00008 15.75C3.57335 15.75 2.41675 14.5934 2.41675 13.1667H0.916748C0.916748 15.4218 2.74492 17.25 5.00008 17.25V15.75ZM17.5834 13.1667C17.5834 14.5934 16.4268 15.75 15.0001 15.75V17.25C17.2552 17.25 19.0834 15.4218 19.0834 13.1667H17.5834ZM16.6667 8.91667C17.173 8.91667 17.5834 9.32707 17.5834 9.83333H19.0834C19.0834 8.49865 18.0014 7.41667 16.6667 7.41667V8.91667ZM3.33341 7.41667C1.99873 7.41667 0.916748 8.49865 0.916748 9.83333H2.41675C2.41675 9.32707 2.82715 8.91667 3.33341 8.91667V7.41667ZM5.00008 5.58333H15.0001V4.08333H5.00008V5.58333ZM15.9167 6.5V8.16667H17.4167V6.5H15.9167ZM4.08341 8.16667V6.5H2.58341V8.16667H4.08341ZM15.0001 5.58333C15.5063 5.58333 15.9167 5.99374 15.9167 6.5H17.4167C17.4167 5.16531 16.3348 4.08333 15.0001 4.08333V5.58333ZM5.00008 4.08333C3.66539 4.08333 2.58341 5.16531 2.58341 6.5H4.08341C4.08341 5.99374 4.49382 5.58333 5.00008 5.58333V4.08333ZM6.66675 2.25H13.3334V0.75H6.66675V2.25ZM14.2501 3.16667V4.83333H15.7501V3.16667H14.2501ZM5.75008 4.83333V3.16667H4.25008V4.83333H5.75008ZM13.3334 2.25C13.8397 2.25 14.2501 2.66041 14.2501 3.16667H15.7501C15.7501 1.83198 14.6681 0.75 13.3334 0.75V2.25ZM6.66675 0.75C5.33206 0.75 4.25008 1.83198 4.25008 3.16667H5.75008C5.75008 2.66041 6.16049 2.25 6.66675 2.25V0.75ZM8.33341 11.4167H11.6667V9.91667H8.33341V11.4167Z" fill="#28303F"/>
</svg>
