<svg width="19" height="19" viewBox="0 0 19 19" fill="none" xmlns="http://www.w3.org/2000/svg">
<path d="M11.3446 6.59468C11.6375 6.30179 12.1124 6.30179 12.4053 6.59468C12.6982 6.88757 12.6982 7.36245 12.4053 7.65534L11.3446 6.59468ZM8.38037 8.38042L8.91071 7.85009L8.38037 8.38042ZM6.59463 7.65534C6.30174 7.36245 6.30174 6.88757 6.59463 6.59468C6.88752 6.30179 7.3624 6.30179 7.65529 6.59468L6.59463 7.65534ZM10.25 8.70834C10.25 9.12256 9.91417 9.45834 9.49996 9.45834C9.08575 9.45834 8.74996 9.12256 8.74996 8.70834H10.25ZM8.74996 4.75001C8.74996 4.3358 9.08575 4.00001 9.49996 4.00001C9.91417 4.00001 10.25 4.3358 10.25 4.75001H8.74996ZM12.9833 10.925L13.5833 11.375L13.5833 11.375L12.9833 10.925ZM12.0333 12.1917L11.4333 11.7417L12.0333 12.1917ZM6.96663 12.1917L7.56663 11.7417L6.96663 12.1917ZM6.01663 10.925L6.61663 10.475L6.01663 10.925ZM12.4053 7.65534L11.1499 8.91075L10.0892 7.85009L11.3446 6.59468L12.4053 7.65534ZM7.85005 8.91075L6.59463 7.65534L7.65529 6.59468L8.91071 7.85009L7.85005 8.91075ZM8.74996 8.70834V4.75001H10.25V8.70834H8.74996ZM11.1499 8.91075C10.2387 9.82198 8.76127 9.82198 7.85005 8.91075L8.91071 7.85009C9.23614 8.17553 9.76378 8.17553 10.0892 7.85009L11.1499 8.91075ZM2.33329 12.6667V15.0417H0.833294V12.6667H2.33329ZM3.95829 16.6667H15.0416V18.1667H3.95829V16.6667ZM16.6666 15.0417V12.6667H18.1666V15.0417H16.6666ZM15.0416 11.0417H14.25V9.54168H15.0416V11.0417ZM13.5833 11.375L12.6333 12.6417L11.4333 11.7417L12.3833 10.475L13.5833 11.375ZM4.74996 11.0417H3.95829V9.54168H4.74996V11.0417ZM6.36663 12.6417L5.41663 11.375L6.61663 10.475L7.56663 11.7417L6.36663 12.6417ZM9.49996 14.2083C8.26716 14.2083 7.10631 13.6279 6.36663 12.6417L7.56663 11.7417C8.02303 12.3502 8.7393 12.7083 9.49996 12.7083V14.2083ZM4.74996 9.54168C5.4844 9.54168 6.17597 9.88746 6.61663 10.475L5.41663 11.375C5.25925 11.1652 5.01226 11.0417 4.74996 11.0417V9.54168ZM12.6333 12.6417C11.8936 13.6279 10.7328 14.2083 9.49996 14.2083V12.7083C10.2606 12.7083 10.9769 12.3502 11.4333 11.7417L12.6333 12.6417ZM14.25 11.0417C13.9877 11.0417 13.7407 11.1652 13.5833 11.375L12.3833 10.475C12.824 9.88746 13.5155 9.54168 14.25 9.54168V11.0417ZM15.0416 16.6667C15.9391 16.6667 16.6666 15.9391 16.6666 15.0417H18.1666C18.1666 16.7676 16.7675 18.1667 15.0416 18.1667V16.6667ZM2.33329 15.0417C2.33329 15.9391 3.06083 16.6667 3.95829 16.6667V18.1667C2.2324 18.1667 0.833294 16.7676 0.833294 15.0417H2.33329ZM0.833294 12.6667C0.833294 10.9408 2.2324 9.54168 3.95829 9.54168V11.0417C3.06083 11.0417 2.33329 11.7692 2.33329 12.6667H0.833294ZM16.6666 12.6667C16.6666 11.7692 15.9391 11.0417 15.0416 11.0417V9.54168C16.7675 9.54168 18.1666 10.9408 18.1666 12.6667H16.6666ZM2.41663 10.2917V4.75001H3.91663V10.2917H2.41663ZM6.33329 0.833344H12.6666V2.33334H6.33329V0.833344ZM16.5833 4.75001V10.2917H15.0833V4.75001H16.5833ZM12.6666 0.833344C14.8297 0.833344 16.5833 2.58689 16.5833 4.75001H15.0833C15.0833 3.41532 14.0013 2.33334 12.6666 2.33334V0.833344ZM2.41663 4.75001C2.41663 2.58689 4.17018 0.833344 6.33329 0.833344V2.33334C4.99861 2.33334 3.91663 3.41532 3.91663 4.75001H2.41663Z" fill="#28303F"/>
</svg>
