<svg width="19" height="19" viewBox="0 0 19 19" fill="none" xmlns="http://www.w3.org/2000/svg">
<path d="M2.375 14.25H1.625H2.375ZM2.375 4.75001L3.125 4.75001L2.375 4.75001ZM5.54167 1.58334V0.833344V1.58334ZM16.625 4.75001L15.875 4.75001V4.75001H16.625ZM16.625 9.77167H17.375H16.625ZM8.97999 17.4167V16.6667V17.4167ZM5.54167 17.4167V18.1667V17.4167ZM15.6975 12.0108L16.2278 12.5412H16.2278L15.6975 12.0108ZM11.2192 16.4892L11.7495 17.0195L11.2192 16.4892ZM10.2917 14.25H11.0417H10.2917ZM13.4583 11.0833L13.4583 10.3333H13.4583V11.0833ZM3.125 14.25L3.125 4.75001L1.625 4.75001L1.625 14.25H3.125ZM5.54167 2.33334L13.4583 2.33334V0.833344L5.54167 0.833344L5.54167 2.33334ZM15.875 4.75001V9.77167H17.375V4.75001H15.875ZM8.97999 16.6667H5.54167V18.1667H8.97999V16.6667ZM15.1672 11.4805L10.6888 15.9589L11.7495 17.0195L16.2278 12.5412L15.1672 11.4805ZM8.97999 18.1667C10.0188 18.1667 11.015 17.754 11.7495 17.0195L10.6888 15.9589C10.2356 16.4121 9.62093 16.6667 8.97999 16.6667V18.1667ZM15.875 9.77167C15.875 10.4126 15.6204 11.0273 15.1672 11.4805L16.2278 12.5412C16.9624 11.8067 17.375 10.8104 17.375 9.77167H15.875ZM3.125 4.75001C3.125 3.41532 4.20698 2.33334 5.54167 2.33334L5.54167 0.833344C3.37855 0.833343 1.625 2.58689 1.625 4.75001L3.125 4.75001ZM1.625 14.25C1.625 16.4131 3.37855 18.1667 5.54167 18.1667V16.6667C4.20698 16.6667 3.125 15.5847 3.125 14.25H1.625ZM13.4583 2.33334C14.793 2.33334 15.875 3.41532 15.875 4.75001L17.375 4.75001C17.375 2.5869 15.6214 0.833344 13.4583 0.833344V2.33334ZM11.0417 17.4167L11.0417 14.25H9.54167L9.54167 17.4167L11.0417 17.4167ZM13.4583 11.8333L16.625 11.8333L16.625 10.3333H13.4583L13.4583 11.8333ZM11.0417 14.25C11.0417 12.9153 12.1236 11.8333 13.4583 11.8333V10.3333C11.2952 10.3333 9.54167 12.0869 9.54167 14.25H11.0417Z" fill="#28303F"/>
</svg>
