<svg width="18" height="18" viewBox="0 0 18 18" fill="none" xmlns="http://www.w3.org/2000/svg">
<path d="M1.55701 16.5H16.8992M10.749 3.42643C10.749 3.42643 10.749 4.78861 12.1423 6.1508C13.5355 7.51299 14.9288 7.51299 14.9288 7.51299M5.2388 13.9901L8.16465 13.5814C8.58669 13.5225 8.9778 13.3313 9.27926 13.0365L16.3221 6.1508C17.0915 5.39848 17.0915 4.17874 16.3221 3.42642L14.9288 2.06424C14.1593 1.31192 12.9117 1.31192 12.1423 2.06424L5.09948 8.94997C4.79802 9.2447 4.60247 9.62709 4.54217 10.0397L4.1242 12.9003C4.03131 13.536 4.58862 14.0809 5.2388 13.9901Z" stroke="#28303F" stroke-opacity="0.3" stroke-width="2" stroke-linecap="round"/>
</svg>
