<svg width="30" height="30" viewBox="0 0 30 30" fill="none" xmlns="http://www.w3.org/2000/svg">
<path d="M3.94063 8.99614L4.7246 10.1258H4.7246L3.94063 8.99614ZM11.9265 3.45374L11.1426 2.32414V2.32414L11.9265 3.45374ZM18.0735 3.45374L18.8574 2.32414V2.32414L18.0735 3.45374ZM26.0594 8.99614L25.2754 10.1258L26.0594 8.99614ZM3.52461 14.056L2.57534 15.0507H2.57534L3.52461 14.056ZM26.4754 14.056L25.5261 13.0612L25.5261 13.0612L26.4754 14.056ZM12.5 21.125C11.7406 21.125 11.125 21.7406 11.125 22.5C11.125 23.2594 11.7406 23.875 12.5 23.875V21.125ZM17.5 23.875C18.2594 23.875 18.875 23.2594 18.875 22.5C18.875 21.7406 18.2594 21.125 17.5 21.125V23.875ZM20.2254 26.125H9.77456V28.875H20.2254V26.125ZM4.7246 10.1258L12.7105 4.58335L11.1426 2.32414L3.15666 7.86654L4.7246 10.1258ZM17.2895 4.58335L25.2754 10.1258L26.8433 7.86654L18.8574 2.32414L17.2895 4.58335ZM24.0759 16.4163V22.5135H26.8259V16.4163H24.0759ZM5.92412 22.5135V16.4163H3.17412V22.5135H5.92412ZM5.92412 16.4163C5.92412 15.145 5.39432 13.9396 4.47388 13.0612L2.57534 15.0507C2.96687 15.4244 3.17412 15.917 3.17412 16.4163H5.92412ZM25.5261 13.0612C24.6057 13.9396 24.0759 15.145 24.0759 16.4163H26.8259C26.8259 15.917 27.0331 15.4244 27.4247 15.0507L25.5261 13.0612ZM12.7105 4.58335C14.0714 3.63888 15.9286 3.63888 17.2895 4.58335L18.8574 2.32414C16.5537 0.725288 13.4463 0.725288 11.1426 2.32414L12.7105 4.58335ZM9.77456 26.125C7.58667 26.125 5.92412 24.4481 5.92412 22.5135H3.17412C3.17412 26.0868 6.19059 28.875 9.77456 28.875V26.125ZM20.2254 28.875C23.8094 28.875 26.8259 26.0868 26.8259 22.5135H24.0759C24.0759 24.4481 22.4133 26.125 20.2254 26.125V28.875ZM25.2754 10.1258C26.3092 10.8432 26.4072 12.2205 25.5261 13.0612L27.4247 15.0507C29.5833 12.9908 29.2862 9.56191 26.8433 7.86654L25.2754 10.1258ZM3.15666 7.86654C0.713828 9.56191 0.416676 12.9908 2.57534 15.0507L4.47388 13.0612C3.59284 12.2205 3.69085 10.8432 4.7246 10.1258L3.15666 7.86654ZM12.5 23.875H17.5V21.125H12.5V23.875Z" fill="#28303F"/>
</svg>
