<svg width="50" height="50" viewBox="0 0 50 50" fill="none" xmlns="http://www.w3.org/2000/svg">
<path d="M14.5833 15.0729C13.7031 15.0729 12.9896 15.7865 12.9896 16.6667C12.9896 17.5469 13.7031 18.2604 14.5833 18.2604V15.0729ZM35.4166 18.2604C36.2969 18.2604 37.0104 17.5469 37.0104 16.6667C37.0104 15.7865 36.2969 15.0729 35.4166 15.0729V18.2604ZM14.5833 23.4062C13.7031 23.4062 12.9896 24.1198 12.9896 25C12.9896 25.8802 13.7031 26.5937 14.5833 26.5937V23.4062ZM35.4166 26.5937C36.2969 26.5937 37.0104 25.8802 37.0104 25C37.0104 24.1198 36.2969 23.4062 35.4166 23.4062V26.5937ZM14.5833 31.7396C13.7031 31.7396 12.9896 32.4531 12.9896 33.3333C12.9896 34.2135 13.7031 34.9271 14.5833 34.9271V31.7396ZM35.4166 34.9271C36.2969 34.9271 37.0104 34.2135 37.0104 33.3333C37.0104 32.4531 36.2969 31.7396 35.4166 31.7396V34.9271ZM14.5833 18.2604H35.4166V15.0729H14.5833V18.2604ZM14.5833 26.5937H35.4166V23.4062H14.5833V26.5937ZM14.5833 34.9271H35.4166V31.7396H14.5833V34.9271Z" fill="#28303F"/>
</svg>
