<svg width="30" height="30" viewBox="0 0 30 30" fill="none" xmlns="http://www.w3.org/2000/svg">
<path d="M10.3661 9.11612C9.87796 9.60427 9.87796 10.3957 10.3661 10.8839C10.8543 11.372 11.6457 11.372 12.1339 10.8839L10.3661 9.11612ZM16.7678 8.01777L15.8839 8.90165L16.7678 8.01777ZM17.8661 10.8839C18.3543 11.372 19.1457 11.372 19.6339 10.8839C20.122 10.3957 20.122 9.60427 19.6339 9.11612L17.8661 10.8839ZM16.25 7.5C16.25 6.80965 15.6904 6.25 15 6.25C14.3096 6.25 13.75 6.80965 13.75 7.5H16.25ZM13.75 13.75C13.75 14.4404 14.3096 15 15 15C15.6904 15 16.25 14.4404 16.25 13.75H13.75ZM9.5 17.25L8.5 18L8.5 18L9.5 17.25ZM11 19.25L12 18.5L11 19.25ZM19 19.25L18 18.5V18.5L19 19.25ZM20.5 17.25L19.5 16.5V16.5L20.5 17.25ZM12.1339 10.8839L14.1161 8.90165L12.3484 7.13389L10.3661 9.11612L12.1339 10.8839ZM15.8839 8.90165L17.8661 10.8839L19.6339 9.11612L17.6517 7.13388L15.8839 8.90165ZM13.75 7.5V13.75H16.25V7.5H13.75ZM14.1161 8.90165C14.6043 8.4135 15.3957 8.4135 15.8839 8.90165L17.6517 7.13388C16.1872 5.66942 13.8128 5.66942 12.3484 7.13389L14.1161 8.90165ZM26.25 20V23.75H28.75V20H26.25ZM23.75 26.25H6.25V28.75H23.75V26.25ZM3.75 23.75V20H1.25V23.75H3.75ZM6.25 17.5H7.5V15H6.25V17.5ZM8.5 18L10 20L12 18.5L10.5 16.5L8.5 18ZM22.5 17.5H23.75V15H22.5V17.5ZM20 20L21.5 18L19.5 16.5L18 18.5L20 20ZM15 22.5C16.9672 22.5 18.8197 21.5738 20 20L18 18.5C17.2918 19.4443 16.1803 20 15 20V22.5ZM22.5 15C21.3197 15 20.2082 15.5557 19.5 16.5L21.5 18C21.7361 17.6852 22.1066 17.5 22.5 17.5V15ZM10 20C11.1803 21.5738 13.0328 22.5 15 22.5V20C13.8197 20 12.7082 19.4443 12 18.5L10 20ZM7.5 17.5C7.89345 17.5 8.26393 17.6852 8.5 18L10.5 16.5C9.7918 15.5557 8.68034 15 7.5 15V17.5ZM6.25 26.25C4.86929 26.25 3.75 25.1307 3.75 23.75H1.25C1.25 26.5114 3.48858 28.75 6.25 28.75V26.25ZM26.25 23.75C26.25 25.1307 25.1307 26.25 23.75 26.25V28.75C26.5114 28.75 28.75 26.5114 28.75 23.75H26.25ZM28.75 20C28.75 17.2386 26.5114 15 23.75 15V17.5C25.1307 17.5 26.25 18.6193 26.25 20H28.75ZM3.75 20C3.75 18.6193 4.86929 17.5 6.25 17.5V15C3.48858 15 1.25 17.2386 1.25 20H3.75ZM26.25 16.25V7.5H23.75V16.25H26.25ZM20 1.25H10V3.75H20V1.25ZM3.75 7.5V16.25H6.25V7.5H3.75ZM10 1.25C6.54822 1.25 3.75 4.04822 3.75 7.5H6.25C6.25 5.42893 7.92893 3.75 10 3.75V1.25ZM26.25 7.5C26.25 4.04822 23.4518 1.25 20 1.25V3.75C22.0711 3.75 23.75 5.42893 23.75 7.5H26.25Z" fill="#28303F"/>
</svg>
