<svg width="30" height="30" viewBox="0 0 30 30" fill="none" xmlns="http://www.w3.org/2000/svg">
<path d="M25.9299 19.6507L24.8639 18.9979L24.8639 18.9979L25.9299 19.6507ZM24.7367 21.5993L25.8027 22.252H25.8027L24.7367 21.5993ZM4.07011 10.3493L3.0041 9.6965H3.0041L4.07011 10.3493ZM5.2633 8.40071L6.32932 9.05348L5.2633 8.40071ZM8.52314 7.57716L9.12078 6.47928L9.12078 6.47928L8.52314 7.57716ZM4.94359 13.4228L4.34595 14.5207H4.34595L4.94359 13.4228ZM21.4769 22.4228L20.8792 23.5207L20.8792 23.5207L21.4769 22.4228ZM25.0564 16.5772L24.4588 17.675V17.675L25.0564 16.5772ZM5.2633 21.5993L4.19728 22.2521H4.19728L5.2633 21.5993ZM4.07011 19.6507L5.13613 18.998H5.13613L4.07011 19.6507ZM24.7367 8.40073L25.8027 7.74796L25.8027 7.74796L24.7367 8.40073ZM25.9299 10.3493L24.8639 11.0021L24.8639 11.0021L25.9299 10.3493ZM25.0564 13.4228L25.6541 14.5207L25.0564 13.4228ZM21.4769 7.57717L22.0745 8.67505L22.0745 8.67505L21.4769 7.57717ZM4.94358 16.5772L5.54122 17.675H5.54122L4.94358 16.5772ZM8.52314 22.4228L7.92551 21.325L7.92551 21.325L8.52314 22.4228ZM21.35 7.64622L20.7524 6.54835V6.54835L21.35 7.64622ZM8.65 7.64621L8.05236 8.74409L8.05236 8.74409L8.65 7.64621ZM21.35 22.3538L21.9477 21.2559L21.9477 21.2559L21.35 22.3538ZM8.65 22.3538L9.24763 23.4517L9.24764 23.4517L8.65 22.3538ZM13.8068 5H16.1932V2.5H13.8068V5ZM16.1932 25H13.8068V27.5H16.1932V25ZM13.8068 25C13.1089 25 12.6704 24.484 12.6704 24H10.1704C10.1704 26.0013 11.8688 27.5 13.8068 27.5V25ZM17.3296 24C17.3296 24.484 16.8911 25 16.1932 25V27.5C18.1312 27.5 19.8296 26.0013 19.8296 24H17.3296ZM16.1932 5C16.8911 5 17.3296 5.516 17.3296 6H19.8296C19.8296 3.99872 18.1312 2.5 16.1932 2.5V5ZM13.8068 2.5C11.8688 2.5 10.1704 3.99872 10.1704 6H12.6704C12.6704 5.516 13.1089 5 13.8068 5V2.5ZM24.8639 18.9979L23.6707 20.9465L25.8027 22.252L26.9959 20.3035L24.8639 18.9979ZM5.13613 11.002L6.32932 9.05348L4.19728 7.74794L3.0041 9.6965L5.13613 11.002ZM6.32932 9.05348C6.62406 8.57215 7.34033 8.35648 7.92551 8.67503L9.12078 6.47928C7.42319 5.55519 5.2205 6.07696 4.19728 7.74794L6.32932 9.05348ZM5.54122 12.325C4.99504 12.0276 4.87012 11.4365 5.13613 11.002L3.0041 9.6965C1.95215 11.4144 2.60937 13.5754 4.34595 14.5207L5.54122 12.325ZM23.6707 20.9465C23.3759 21.4278 22.6597 21.6435 22.0745 21.325L20.8792 23.5207C22.5768 24.4448 24.7795 23.923 25.8027 22.252L23.6707 20.9465ZM26.9959 20.3035C28.0478 18.5856 27.3906 16.4246 25.6541 15.4793L24.4588 17.675C25.005 17.9724 25.1299 18.5635 24.8639 18.9979L26.9959 20.3035ZM6.32932 20.9465L5.13613 18.998L3.00409 20.3035L4.19728 22.2521L6.32932 20.9465ZM23.6707 9.0535L24.8639 11.0021L26.9959 9.69652L25.8027 7.74796L23.6707 9.0535ZM24.8639 11.0021C25.1299 11.4365 25.005 12.0276 24.4588 12.325L25.6541 14.5207C27.3906 13.5754 28.0479 11.4144 26.9959 9.69652L24.8639 11.0021ZM22.0745 8.67505C22.6597 8.3565 23.3759 8.57217 23.6707 9.0535L25.8027 7.74796C24.7795 6.07697 22.5768 5.5552 20.8792 6.4793L22.0745 8.67505ZM5.13613 18.998C4.87012 18.5635 4.99503 17.9724 5.54122 17.675L4.34595 15.4793C2.60937 16.4246 1.95215 18.5856 3.00409 20.3035L5.13613 18.998ZM4.19728 22.2521C5.2205 23.923 7.42319 24.4448 9.12078 23.5207L7.92551 21.325C7.34032 21.6435 6.62405 21.4278 6.32932 20.9465L4.19728 22.2521ZM21.9476 8.7441L22.0745 8.67505L20.8792 6.4793L20.7524 6.54835L21.9476 8.7441ZM7.92551 8.67503L8.05236 8.74409L9.24764 6.54834L9.12078 6.47928L7.92551 8.67503ZM22.0745 21.325L21.9477 21.2559L20.7524 23.4517L20.8792 23.5207L22.0745 21.325ZM8.05237 21.2559L7.92551 21.325L9.12077 23.5207L9.24763 23.4517L8.05237 21.2559ZM4.34595 14.5207C4.72568 14.7274 4.72568 15.2726 4.34595 15.4793L5.54122 17.675C7.66059 16.5214 7.6606 13.4786 5.54122 12.325L4.34595 14.5207ZM9.24764 23.4517C9.66365 23.2252 10.1704 23.5263 10.1704 24H12.6704C12.6704 21.6296 10.1343 20.1226 8.05236 21.2559L9.24764 23.4517ZM19.8296 24C19.8296 23.5263 20.3364 23.2252 20.7524 23.4517L21.9477 21.2559C19.8657 20.1226 17.3296 21.6296 17.3296 24H19.8296ZM25.6541 15.4793C25.2743 15.2726 25.2743 14.7274 25.6541 14.5207L24.4588 12.325C22.3394 13.4787 22.3394 16.5213 24.4588 17.675L25.6541 15.4793ZM8.05236 8.74409C10.1343 9.87738 12.6704 8.37037 12.6704 6H10.1704C10.1704 6.47366 9.66365 6.7748 9.24764 6.54834L8.05236 8.74409ZM20.7524 6.54835C20.3364 6.77481 19.8296 6.47367 19.8296 6H17.3296C17.3296 8.37038 19.8657 9.8774 21.9476 8.7441L20.7524 6.54835ZM17.5 15C17.5 16.3807 16.3807 17.5 15 17.5V20C17.7614 20 20 17.7614 20 15H17.5ZM15 17.5C13.6193 17.5 12.5 16.3807 12.5 15H10C10 17.7614 12.2386 20 15 20V17.5ZM12.5 15C12.5 13.6193 13.6193 12.5 15 12.5V10C12.2386 10 10 12.2386 10 15H12.5ZM15 12.5C16.3807 12.5 17.5 13.6193 17.5 15H20C20 12.2386 17.7614 10 15 10V12.5Z" fill="#28303F"/>
</svg>
