<svg width="30" height="30" viewBox="0 0 30 30" fill="none" xmlns="http://www.w3.org/2000/svg">
<path d="M26.25 15C26.25 21.2132 21.2132 26.25 15 26.25V28.75C22.5939 28.75 28.75 22.5939 28.75 15H26.25ZM15 26.25C8.7868 26.25 3.75 21.2132 3.75 15H1.25C1.25 22.5939 7.40609 28.75 15 28.75V26.25ZM3.75 15C3.75 8.7868 8.7868 3.75 15 3.75V1.25C7.40609 1.25 1.25 7.40609 1.25 15H3.75ZM15 3.75C21.2132 3.75 26.25 8.7868 26.25 15H28.75C28.75 7.40609 22.5939 1.25 15 1.25V3.75ZM18.75 15C18.75 18.3335 18.2073 21.2938 17.3749 23.3746C16.9574 24.4185 16.4915 25.1793 16.038 25.6588C15.5871 26.1356 15.2359 26.25 15 26.25V28.75C16.1448 28.75 17.109 28.1648 17.8544 27.3766C18.5974 26.591 19.2089 25.5213 19.6961 24.3031C20.6735 21.8598 21.25 18.5701 21.25 15H18.75ZM15 26.25C14.7641 26.25 14.4129 26.1356 13.962 25.6588C13.5085 25.1793 13.0426 24.4185 12.6251 23.3746C11.7927 21.2938 11.25 18.3335 11.25 15H8.75C8.75 18.5701 9.32655 21.8598 10.3039 24.3031C10.7911 25.5213 11.4026 26.591 12.1456 27.3766C12.891 28.1648 13.8552 28.75 15 28.75V26.25ZM11.25 15C11.25 11.6665 11.7927 8.70621 12.6251 6.6254C13.0426 5.58153 13.5085 4.82066 13.962 4.3412C14.4129 3.86437 14.7641 3.75 15 3.75V1.25C13.8552 1.25 12.891 1.83518 12.1456 2.62343C11.4026 3.40903 10.7911 4.47874 10.3039 5.69693C9.32655 8.14023 8.75 11.4299 8.75 15H11.25ZM15 3.75C15.2359 3.75 15.5871 3.86437 16.038 4.3412C16.4915 4.82066 16.9574 5.58153 17.3749 6.6254C18.2073 8.70621 18.75 11.6665 18.75 15H21.25C21.25 11.4299 20.6735 8.14023 19.6961 5.69693C19.2089 4.47874 18.5974 3.40903 17.8544 2.62343C17.109 1.83518 16.1448 1.25 15 1.25V3.75ZM15 17.5C11.6348 17.5 8.63649 17.0892 6.52035 16.4544C5.45432 16.1346 4.68269 15.7786 4.20548 15.4401C3.69579 15.0786 3.75 14.9118 3.75 15L1.25 15C1.25 16.1238 2.00377 16.9435 2.75915 17.4792C3.547 18.0381 4.60595 18.4901 5.80198 18.8489C8.20995 19.5713 11.4616 20 15 20L15 17.5ZM3.75 15C3.75 15.0883 3.69579 14.9214 4.20548 14.5599C4.68269 14.2214 5.45432 13.8654 6.52035 13.5456C8.63649 12.9108 11.6348 12.5 15 12.5L15 10C11.4616 10 8.20995 10.4287 5.80198 11.1511C4.60595 11.5099 3.547 11.962 2.75915 12.5208C2.00377 13.0565 1.25 13.8762 1.25 15L3.75 15ZM15 12.5C18.3652 12.5 21.3635 12.9108 23.4797 13.5456C24.5457 13.8654 25.3173 14.2214 25.7945 14.5599C26.3042 14.9214 26.25 15.0883 26.25 15L28.75 15C28.75 13.8762 27.9962 13.0565 27.2409 12.5208C26.453 11.962 25.3941 11.5099 24.198 11.1511C21.7901 10.4287 18.5384 10 15 10L15 12.5ZM26.25 15C26.25 14.9118 26.3042 15.0786 25.7945 15.4401C25.3173 15.7786 24.5457 16.1346 23.4797 16.4544C21.3635 17.0892 18.3652 17.5 15 17.5L15 20C18.5384 20 21.7901 19.5713 24.198 18.8489C25.3941 18.4901 26.453 18.0381 27.2409 17.4792C27.9962 16.9435 28.75 16.1238 28.75 15L26.25 15Z" fill="#28303F"/>
</svg>
