<svg width="30" height="30" viewBox="0 0 30 30" fill="none" xmlns="http://www.w3.org/2000/svg">
<path d="M10.3661 14.1161C9.87796 14.6043 9.87796 15.3957 10.3661 15.8839C10.8543 16.372 11.6457 16.372 12.1339 15.8839L10.3661 14.1161ZM14.0089 14.0089C14.497 13.5207 14.497 12.7293 14.0089 12.2411C13.5207 11.753 12.7293 11.753 12.2411 12.2411L14.0089 14.0089ZM9.5 17.25L8.5 18L8.5 18L9.5 17.25ZM11 19.25L12 18.5L11 19.25ZM19 19.25L18 18.5V18.5L19 19.25ZM20.5 17.25L19.5 16.5V16.5L20.5 17.25ZM17.5 10.625C17.5 11.6605 16.6605 12.5 15.625 12.5V15C18.0412 15 20 13.0412 20 10.625H17.5ZM15.625 12.5C14.5895 12.5 13.75 11.6605 13.75 10.625H11.25C11.25 13.0412 13.2088 15 15.625 15V12.5ZM13.75 10.625C13.75 9.58947 14.5895 8.75 15.625 8.75V6.25C13.2088 6.25 11.25 8.20876 11.25 10.625H13.75ZM15.625 8.75C16.6605 8.75 17.5 9.58947 17.5 10.625H20C20 8.20876 18.0412 6.25 15.625 6.25V8.75ZM12.1339 15.8839L14.0089 14.0089L12.2411 12.2411L10.3661 14.1161L12.1339 15.8839ZM26.25 20V23.75H28.75V20H26.25ZM23.75 26.25H6.25V28.75H23.75V26.25ZM3.75 23.75V20H1.25V23.75H3.75ZM6.25 17.5H7.5V15H6.25V17.5ZM8.5 18L10 20L12 18.5L10.5 16.5L8.5 18ZM22.5 17.5H23.75V15H22.5V17.5ZM20 20L21.5 18L19.5 16.5L18 18.5L20 20ZM15 22.5C16.9672 22.5 18.8197 21.5738 20 20L18 18.5C17.2918 19.4443 16.1803 20 15 20V22.5ZM22.5 15C21.3197 15 20.2082 15.5557 19.5 16.5L21.5 18C21.7361 17.6852 22.1066 17.5 22.5 17.5V15ZM10 20C11.1803 21.5738 13.0328 22.5 15 22.5V20C13.8197 20 12.7082 19.4443 12 18.5L10 20ZM7.5 17.5C7.89345 17.5 8.26393 17.6852 8.5 18L10.5 16.5C9.7918 15.5557 8.68034 15 7.5 15V17.5ZM6.25 26.25C4.86929 26.25 3.75 25.1307 3.75 23.75H1.25C1.25 26.5114 3.48858 28.75 6.25 28.75V26.25ZM26.25 23.75C26.25 25.1307 25.1307 26.25 23.75 26.25V28.75C26.5114 28.75 28.75 26.5114 28.75 23.75H26.25ZM28.75 20C28.75 17.2386 26.5114 15 23.75 15V17.5C25.1307 17.5 26.25 18.6193 26.25 20H28.75ZM3.75 20C3.75 18.6193 4.86929 17.5 6.25 17.5V15C3.48858 15 1.25 17.2386 1.25 20H3.75ZM26.25 16.25V7.5H23.75V16.25H26.25ZM20 1.25H10V3.75H20V1.25ZM3.75 7.5V16.25H6.25V7.5H3.75ZM10 1.25C6.54822 1.25 3.75 4.04822 3.75 7.5H6.25C6.25 5.42893 7.92893 3.75 10 3.75V1.25ZM26.25 7.5C26.25 4.04822 23.4518 1.25 20 1.25V3.75C22.0711 3.75 23.75 5.42893 23.75 7.5H26.25Z" fill="#28303F"/>
</svg>
