<svg width="30" height="30" viewBox="0 0 30 30" fill="none" xmlns="http://www.w3.org/2000/svg">
<circle cx="15" cy="15" r="6.25" stroke="#28303F" stroke-width="2.5"/>
<path d="M16.25 2.5C16.25 1.80964 15.6904 1.25 15 1.25C14.3096 1.25 13.75 1.80964 13.75 2.5H16.25ZM13.75 5C13.75 5.69036 14.3096 6.25 15 6.25C15.6904 6.25 16.25 5.69036 16.25 5H13.75ZM13.75 2.5V5H16.25V2.5H13.75Z" fill="#28303F"/>
<path d="M16.25 25C16.25 24.3096 15.6904 23.75 15 23.75C14.3096 23.75 13.75 24.3096 13.75 25H16.25ZM13.75 27.5C13.75 28.1904 14.3096 28.75 15 28.75C15.6904 28.75 16.25 28.1904 16.25 27.5H13.75ZM13.75 25V27.5H16.25V25H13.75Z" fill="#28303F"/>
<path d="M26.4502 9.83253C27.0481 9.48735 27.2529 8.72287 26.9077 8.125C26.5625 7.52713 25.7981 7.32229 25.2002 7.66747L26.4502 9.83253ZM23.0351 8.91747C22.4373 9.26265 22.2324 10.0271 22.5776 10.625C22.9228 11.2229 23.6873 11.4277 24.2851 11.0825L23.0351 8.91747ZM25.2002 7.66747L23.0351 8.91747L24.2851 11.0825L26.4502 9.83253L25.2002 7.66747Z" fill="#28303F"/>
<path d="M6.96472 21.0825C7.56259 20.7374 7.76743 19.9729 7.42225 19.375C7.07708 18.7771 6.31259 18.5723 5.71472 18.9175L6.96472 21.0825ZM3.54966 20.1675C2.95179 20.5126 2.74695 21.2771 3.09213 21.875C3.4373 22.4729 4.20179 22.6777 4.79966 22.3325L3.54966 20.1675ZM5.71472 18.9175L3.54966 20.1675L4.79966 22.3325L6.96472 21.0825L5.71472 18.9175Z" fill="#28303F"/>
<path d="M4.7998 7.66759C4.20194 7.32241 3.43745 7.52726 3.09227 8.12512C2.74709 8.72299 2.95194 9.48748 3.5498 9.83265L4.7998 7.66759ZM5.71487 11.0827C6.31273 11.4278 7.07722 11.223 7.4224 10.6251C7.76758 10.0273 7.56273 9.26277 6.96487 8.91759L5.71487 11.0827ZM3.5498 9.83265L5.71487 11.0827L6.96487 8.91759L4.7998 7.66759L3.5498 9.83265Z" fill="#28303F"/>
<path d="M24.2853 18.9175C23.6874 18.5723 22.9229 18.7771 22.5777 19.375C22.2326 19.9729 22.4374 20.7374 23.0353 21.0825L24.2853 18.9175ZM25.2003 22.3325C25.7982 22.6777 26.5627 22.4729 26.9079 21.875C27.2531 21.2771 27.0482 20.5126 26.4503 20.1675L25.2003 22.3325ZM23.0353 21.0825L25.2003 22.3325L26.4503 20.1675L24.2853 18.9175L23.0353 21.0825Z" fill="#28303F"/>
</svg>
