<svg width="30" height="30" viewBox="0 0 30 30" fill="none" xmlns="http://www.w3.org/2000/svg">
<path d="M10 11.25C9.30964 11.25 8.75 11.8096 8.75 12.5C8.75 13.1904 9.30964 13.75 10 13.75V11.25ZM20 13.75C20.6904 13.75 21.25 13.1904 21.25 12.5C21.25 11.8096 20.6904 11.25 20 11.25V13.75ZM10 16.25C9.30964 16.25 8.75 16.8096 8.75 17.5C8.75 18.1904 9.30964 18.75 10 18.75V16.25ZM20 18.75C20.6904 18.75 21.25 18.1904 21.25 17.5C21.25 16.8096 20.6904 16.25 20 16.25V18.75ZM10 21.25C9.30964 21.25 8.75 21.8096 8.75 22.5C8.75 23.1904 9.30964 23.75 10 23.75V21.25ZM15 23.75C15.6904 23.75 16.25 23.1904 16.25 22.5C16.25 21.8096 15.6904 21.25 15 21.25V23.75ZM25 10V22.5H27.5V10H25ZM21.25 26.25H8.75V28.75H21.25V26.25ZM5 22.5V10H2.5V22.5H5ZM20 6.25H21.25V3.75H20V6.25ZM8.75 6.25H10V3.75H8.75V6.25ZM8.75 26.25C6.67893 26.25 5 24.5711 5 22.5H2.5C2.5 25.9518 5.29822 28.75 8.75 28.75V26.25ZM25 22.5C25 24.5711 23.3211 26.25 21.25 26.25V28.75C24.7018 28.75 27.5 25.9518 27.5 22.5H25ZM27.5 10C27.5 6.54822 24.7018 3.75 21.25 3.75V6.25C23.3211 6.25 25 7.92893 25 10H27.5ZM5 10C5 7.92893 6.67893 6.25 8.75 6.25V3.75C5.29822 3.75 2.5 6.54822 2.5 10H5ZM12.5 3.75H17.5V1.25H12.5V3.75ZM17.5 6.25H12.5V8.75H17.5V6.25ZM12.5 6.25C11.8096 6.25 11.25 5.69036 11.25 5H8.75C8.75 7.07107 10.4289 8.75 12.5 8.75V6.25ZM18.75 5C18.75 5.69036 18.1904 6.25 17.5 6.25V8.75C19.5711 8.75 21.25 7.07107 21.25 5H18.75ZM17.5 3.75C18.1904 3.75 18.75 4.30964 18.75 5H21.25C21.25 2.92893 19.5711 1.25 17.5 1.25V3.75ZM12.5 1.25C10.4289 1.25 8.75 2.92893 8.75 5H11.25C11.25 4.30964 11.8096 3.75 12.5 3.75V1.25ZM10 13.75H20V11.25H10V13.75ZM10 18.75H20V16.25H10V18.75ZM10 23.75H15V21.25H10V23.75Z" fill="#28303F"/>
</svg>
