<svg width="15" height="4" viewBox="0 0 15 4" fill="none" xmlns="http://www.w3.org/2000/svg">
<path fill-rule="evenodd" clip-rule="evenodd" d="M0.5 2.27079C0.5 3.01868 1.10628 3.62496 1.85417 3.62496C2.60205 3.62496 3.20833 3.01868 3.20833 2.27079C3.20833 1.52291 2.60205 0.916626 1.85417 0.916626C1.10628 0.916626 0.5 1.52291 0.5 2.27079ZM7.27083 3.62496C6.52295 3.62496 5.91667 3.01868 5.91667 2.27079C5.91667 1.52291 6.52295 0.916626 7.27083 0.916626C8.01872 0.916626 8.625 1.52291 8.625 2.27079C8.625 3.01868 8.01872 3.62496 7.27083 3.62496ZM12.6875 3.62496C11.9396 3.62496 11.3333 3.01868 11.3333 2.27079C11.3333 1.52291 11.9396 0.916626 12.6875 0.916626C13.4354 0.916626 14.0417 1.52291 14.0417 2.27079C14.0417 3.01868 13.4354 3.62496 12.6875 3.62496Z" fill="#28303F"/>
</svg>
