<svg width="25" height="28" viewBox="0 0 25 28" fill="none" xmlns="http://www.w3.org/2000/svg">
<path d="M3.6416 15.1441L2.39957 15.0031L3.6416 15.1441ZM4.20058 10.219L5.44261 10.36L4.20058 10.219ZM2.55973 17.5902L1.60789 16.7799H1.60789L2.55973 17.5902ZM21.6004 15.0031C21.5226 14.3172 20.9034 13.8242 20.2174 13.902C19.5315 13.9799 19.0385 14.5991 19.1164 15.285L21.6004 15.0031ZM21.4403 17.5902L20.4884 18.4004L21.4403 17.5902ZM9.16257 4.46708L9.56748 5.64968C10.073 5.4766 10.4126 5.00138 10.4126 4.46708L9.16257 4.46708ZM13.2053 3.30431C13.655 3.8281 14.4442 3.88815 14.968 3.43844C15.4918 2.98873 15.5518 2.19956 15.1021 1.67577L13.2053 3.30431ZM16.9205 24.4387C17.1628 23.7922 16.8351 23.0718 16.1887 22.8295C15.5422 22.5872 14.8218 22.9149 14.5795 23.5613L16.9205 24.4387ZM9.4205 23.5613C9.17823 22.9149 8.45778 22.5872 7.81133 22.8295C7.16488 23.0718 6.83723 23.7922 7.0795 24.4387L9.4205 23.5613ZM22 7.75C22 9.13071 20.8807 10.25 19.5 10.25V12.75C22.2614 12.75 24.5 10.5114 24.5 7.75H22ZM19.5 10.25C18.1193 10.25 17 9.13071 17 7.75H14.5C14.5 10.5114 16.7386 12.75 19.5 12.75V10.25ZM17 7.75C17 6.36929 18.1193 5.25 19.5 5.25V2.75C16.7386 2.75 14.5 4.98858 14.5 7.75H17ZM19.5 5.25C20.8807 5.25 22 6.36929 22 7.75H24.5C24.5 4.98858 22.2614 2.75 19.5 2.75V5.25ZM19.2215 20.25H4.77852V22.75H19.2215V20.25ZM4.88362 15.285L5.44261 10.36L2.95855 10.078L2.39957 15.0031L4.88362 15.285ZM3.51158 18.4004C4.27141 17.5078 4.7535 16.4316 4.88362 15.285L2.39957 15.0031C2.32834 15.6307 2.06219 16.2462 1.60789 16.7799L3.51158 18.4004ZM19.1164 15.285C19.2465 16.4316 19.7286 17.5078 20.4884 18.4004L22.3921 16.7799C21.9378 16.2462 21.6717 15.6307 21.6004 15.0031L19.1164 15.285ZM4.77852 20.25C4.0677 20.25 3.59462 19.9017 3.38498 19.5322C3.18768 19.1846 3.1872 18.7815 3.51158 18.4004L1.60789 16.7799C0.560981 18.0098 0.527149 19.5616 1.21069 20.7661C1.8819 21.9489 3.20386 22.75 4.77852 22.75V20.25ZM19.2215 22.75C20.7961 22.75 22.1181 21.9489 22.7893 20.7661C23.4729 19.5616 23.439 18.0098 22.3921 16.7799L20.4884 18.4004C20.8128 18.7815 20.8123 19.1846 20.615 19.5322C20.4054 19.9017 19.9323 20.25 19.2215 20.25V22.75ZM10.4126 4.46708V4.33743H7.91257V4.46708H10.4126ZM5.44261 10.36C5.6805 8.26392 7.26493 6.43804 9.56748 5.64968L8.75766 3.28447C5.70421 4.32994 3.32349 6.86267 2.95855 10.078L5.44261 10.36ZM12 0.25C9.74257 0.25 7.91257 2.08001 7.91257 4.33743H10.4126C10.4126 3.46072 11.1233 2.75 12 2.75V0.25ZM12 2.75C12.4817 2.75 12.9123 2.963 13.2053 3.30431L15.1021 1.67577C14.3544 0.804875 13.2413 0.25 12 0.25V2.75ZM14.5795 23.5613C14.2236 24.511 13.2305 25.25 12 25.25V27.75C14.232 27.75 16.1847 26.402 16.9205 24.4387L14.5795 23.5613ZM12 25.25C10.7695 25.25 9.77641 24.511 9.4205 23.5613L7.0795 24.4387C7.8153 26.402 9.76797 27.75 12 27.75V25.25Z" fill="#28303F"/>
</svg>
