<svg width="19" height="19" viewBox="0 0 19 19" fill="none" xmlns="http://www.w3.org/2000/svg">
<path d="M13.9459 2.51084L14.4763 1.98051L14.4763 1.98051L13.9459 2.51084ZM16.4891 5.054L15.9588 5.58433L16.4891 5.054ZM4.79158 17.4167V18.1667H6.29158V17.4167H4.79158ZM12.7083 17.4167V18.1667H14.2083V17.4167H12.7083ZM11.8749 6.29168C12.2891 6.29168 12.6249 5.95589 12.6249 5.54168C12.6249 5.12746 12.2891 4.79168 11.8749 4.79168V6.29168ZM7.12492 4.79168C6.7107 4.79168 6.37492 5.12746 6.37492 5.54168C6.37492 5.95589 6.7107 6.29168 7.12492 6.29168V4.79168ZM16.6666 7.29317V14.25H18.1666V7.29317H16.6666ZM14.2499 16.6667H4.74992V18.1667H14.2499V16.6667ZM2.33325 14.25V4.75001H0.833252V14.25H2.33325ZM4.74992 2.33334H11.7068V0.833344H4.74992V2.33334ZM13.4156 3.04117L15.9588 5.58433L17.0194 4.52367L14.4763 1.98051L13.4156 3.04117ZM11.7068 2.33334C12.3477 2.33334 12.9624 2.58796 13.4156 3.04117L14.4763 1.98051C13.7417 1.24599 12.7455 0.833344 11.7068 0.833344V2.33334ZM4.74992 16.6667C3.41523 16.6667 2.33325 15.5847 2.33325 14.25H0.833252C0.833252 16.4131 2.5868 18.1667 4.74992 18.1667V16.6667ZM16.6666 14.25C16.6666 15.5847 15.5846 16.6667 14.2499 16.6667V18.1667C16.413 18.1667 18.1666 16.4131 18.1666 14.25H16.6666ZM18.1666 7.29317C18.1666 6.2544 17.7539 5.25818 17.0194 4.52367L15.9588 5.58433C16.412 6.03754 16.6666 6.65223 16.6666 7.29317H18.1666ZM2.33325 4.75001C2.33325 3.41532 3.41523 2.33334 4.74992 2.33334V0.833344C2.5868 0.833344 0.833252 2.58689 0.833252 4.75001H2.33325ZM6.29158 17.4167V12.6667H4.79158V17.4167H6.29158ZM7.12492 11.8333H11.8749V10.3333H7.12492V11.8333ZM12.7083 12.6667V17.4167H14.2083V12.6667H12.7083ZM11.8749 11.8333C12.3352 11.8333 12.7083 12.2064 12.7083 12.6667H14.2083C14.2083 11.378 13.1636 10.3333 11.8749 10.3333V11.8333ZM6.29158 12.6667C6.29158 12.2064 6.66468 11.8333 7.12492 11.8333V10.3333C5.83625 10.3333 4.79158 11.378 4.79158 12.6667H6.29158ZM11.8749 4.79168L7.12492 4.79168V6.29168L11.8749 6.29168V4.79168Z" fill="#28303F"/>
</svg>
