<svg width="17" height="17" viewBox="0 0 17 17" fill="none" xmlns="http://www.w3.org/2000/svg">
<g clip-path="url(#clip0_569_857)">
<path d="M1.41675 4.24996H15.5834M7.08341 7.79163V11.3333M9.91675 7.79163V11.3333M2.83341 4.24996H14.1667L13.0476 14.3225C13.0092 14.6691 12.8443 14.9894 12.5845 15.2221C12.3247 15.4547 11.9882 15.5833 11.6394 15.5833H5.36075C5.01199 15.5833 4.67548 15.4547 4.41565 15.2221C4.15583 14.9894 3.99094 14.6691 3.95258 14.3225L2.83341 4.24996ZM5.20279 2.22908C5.31736 1.9861 5.49866 1.78071 5.72554 1.63685C5.95242 1.493 6.21552 1.41662 6.48416 1.41663H10.516C10.7848 1.41649 11.048 1.4928 11.275 1.63666C11.502 1.78053 11.6835 1.98599 11.7981 2.22908L12.7501 4.24996H4.25008L5.20279 2.22908V2.22908Z" stroke="#28303F" stroke-width="1.4" stroke-linecap="round" stroke-linejoin="round"/>
</g>
<defs>
<clipPath id="clip0_569_857">
<rect width="17" height="17" fill="white"/>
</clipPath>
</defs>
</svg>
